<?xml version="1.0" standalone="yes"?>
<svg xmlns="http://www.w3.org/2000/svg" width="1920" height="1080">
<path style="fill:#01010e; stroke:none;" d="M0 0L0 1080L1920 1080L1920 0L0 0z"/>
<path style="fill:#5a3962; stroke:none;" d="M295 88L296 89L295 88z"/>
<path style="fill:#ededee; stroke:none;" d="M325 160L311 160C311 169.672 312.732 181.802 309.107 190.995C306.474 197.674 298.726 198.529 295.314 191.981C292.108 185.828 293 177.683 293 171L293 130C293 122.327 291.797 113.23 294.995 106.015C297.097 101.272 302.396 98.3397 306.772 102.319C314.02 108.91 311 126.2 311 135L325 135C325 122.55 327.382 105.667 319.362 95.0432C311.542 84.6845 291.469 85.5344 284.133 96.0934C277.609 105.482 278 120.039 278 131C278 150.939 272.559 182.513 283.969 199.996C291.296 211.222 312.101 213.053 319.647 200.96C327.02 189.144 325 173.265 325 160z"/>
<path style="fill:#5a3962; stroke:none;" d="M309 88L310 89L309 88M292 89L293 90L292 89M312 89L313 90L312 89z"/>
<path style="fill:#a31ba2; stroke:none;" d="M694.667 89.3333L695.333 89.6667L694.667 89.3333z"/>
<path style="fill:#f90ef4; stroke:none;" d="M692 163L679 163C679 174.904 676.816 191.812 684.8 201.815C696.206 216.104 719.041 208.448 722.547 192C726.003 175.785 723.17 159.974 712.535 147C705.701 138.663 693.786 131.174 691.479 120C689.951 112.597 695.698 92.9604 705.721 103.229C711.55 109.2 710 122.307 710 130L722 130C722 119.247 724.001 104.046 716.442 95.1883C704.973 81.7472 682.617 90.2795 679.464 106C677.026 118.156 678.694 130.05 686.518 140C694.888 150.645 708.275 158.64 710.674 173C711.617 178.641 712.161 187.903 709.062 192.945C705.814 198.229 698.736 198.96 695.005 193.786C689.429 186.052 692 171.991 692 163z"/>
<path style="fill:#a31ba2; stroke:none;" d="M705.667 89.3333L706.333 89.6667L705.667 89.3333z"/>
<path style="fill:#5a3962; stroke:none;" d="M101 90L101 208L102 208L102 126L101 90z"/>
<path style="fill:#ededee; stroke:none;" d="M102 90L102 208L116 208L116 151C120.691 151 126.915 150.094 130.697 153.514C134.787 157.213 134 164.039 134 169C134.001 182.053 134.732 195.01 135 208L149 208C149 192.922 149.677 175.87 147.246 161C146.165 154.389 144.896 148.401 138 146C150.629 137.9 154.351 102.754 140.815 93.1443C131.438 86.4872 112.957 90 102 90z"/>
<path style="fill:#5a3962; stroke:none;" d="M134.667 90.3333L135.333 90.6667L134.667 90.3333M165 90L165 208L166 208L166 126L165 90z"/>
<path style="fill:#ededee; stroke:none;" d="M166 90L166 208L202 208L202 196L180 196L180 154C192.595 154 201 156.878 201 142L180 142L180 102C192.751 102 202 105.22 202 90L166 90M230 90L213 208L225.258 206.972L229 186L251 186C251.039 190.729 250.819 203.806 254.742 206.972C257.476 209.178 263.69 208 267 208L248 90L230 90z"/>
<path style="fill:#5a3962; stroke:none;" d="M290 90L291 91L290 90M314 90L315 91L314 90M333 90L333 102L334 102L333 90z"/>
<path style="fill:#ededee; stroke:none;" d="M334 90L334 102L347 102L347 208L361 208L361 102L373 102L373 90L334 90z"/>
<path style="fill:#5a3962; stroke:none;" d="M373 90L373 102L374 102L373 90z"/>
<path style="fill:#f90ef4; stroke:none;" d="M419 90L419 208L432 208L432 150L452 150L452 208L465 208L465 90L452 90L452 139L432 139L432 90L419 90z"/>
<path style="fill:#a31ba2; stroke:none;" d="M432 90L432 139L433 139C433 125.212 437.309 102.652 432 90M465 90L465 208L466 208L466 126L465 90z"/>
<path style="fill:#f90ef4; stroke:none;" d="M498 90C494.917 129.008 487.169 169.518 480 208L493 208C493.218 202.926 492.907 189.142 497.434 186.028C501.926 182.938 512.692 185 518 185L521 208L534 208C527.277 180.711 524.516 151.748 519.92 124C518.579 115.906 518.994 97.9788 513.825 91.6034C511.135 88.2864 501.863 90 498 90z"/>
<path style="fill:#a31ba2; stroke:none;" d="M514.333 90.6667L514.667 91.3333L514.333 90.6667M548 90L548 208L549 208L549 126L548 90z"/>
<path style="fill:#f90ef4; stroke:none;" d="M549 90L549 208L561 208L560 129L561 129C565.613 148.941 573.86 168.579 580.333 188C583.982 198.946 584.012 207.999 597 208L597 90L585 90C585 115.304 581.133 145.359 587 170C582.479 164.871 581.182 156.413 578.997 150C574.566 136.997 570.013 124.038 565.667 111C562.178 100.535 561.706 90.0099 549 90z"/>
<path style="fill:#a31ba2; stroke:none;" d="M558 90L559 91L558 90M616 90L616 208L617 208L617 126L616 90z"/>
<path style="fill:#f90ef4; stroke:none;" d="M617 90L617 208C628.448 208 645.477 210.997 654.671 202.468C661.545 196.089 661.999 184.691 662 176C662.001 157.001 662.091 137.999 661.999 119C661.962 111.27 660.809 100.95 654.787 95.3904C645.639 86.9441 628.38 90 617 90z"/>
<path style="fill:#a31ba2; stroke:none;" d="M643.667 90.3333L644.333 90.6667L643.667 90.3333z"/>
<path style="fill:#5a3962; stroke:none;" d="M690 90L691 91L690 90z"/>
<path style="fill:#a31ba2; stroke:none;" d="M709 90L710 91L709 90z"/>
<path style="fill:#5a3962; stroke:none;" d="M138 91L139 92L138 91M248 91L248 94L249 94L248 91M288 91L289 92L288 91z"/>
<path style="fill:#a31ba2; stroke:none;" d="M497 91L497 95L498 95L497 91M648 91L649 92L648 91M688 91L689 92L688 91z"/>
<path style="fill:#5a3962; stroke:none;" d="M140 92L141 93L140 92M287 92L288 93L287 92M317 92L318 93L317 92z"/>
<path style="fill:#a31ba2; stroke:none;" d="M559.333 92.6667L559.667 93.3333L559.333 92.6667M650 92L651 93L650 92z"/>
<path style="fill:#5a3962; stroke:none;" d="M686 92L687 93L686 92z"/>
<path style="fill:#a31ba2; stroke:none;" d="M713 92L714 93L713 92z"/>
<path style="fill:#5a3962; stroke:none;" d="M141 93L142 94L141 93M229 93L229 97L230 97L229 93M318 93L319 94L318 93z"/>
<path style="fill:#a31ba2; stroke:none;" d="M652 93L653 94L652 93M685 93L686 94L685 93M684 94L685 95L684 94z"/>
<path style="fill:#5a3962; stroke:none;" d="M143 95L144 96L143 95M284 95L285 96L284 95z"/>
<path style="fill:#a31ba2; stroke:none;" d="M515 95L515 98L516 98L515 95M560 95L561 96L560 95M683 95L684 96L683 95z"/>
<path style="fill:#5a3962; stroke:none;" d="M144 96L145 97L144 96M283 96L284 97L283 96M320 96L321 97L320 96z"/>
<path style="fill:#a31ba2; stroke:none;" d="M717 96L718 97L717 96z"/>
<path style="fill:#5a3962; stroke:none;" d="M249 97L249 100L250 100L249 97z"/>
<path style="fill:#a31ba2; stroke:none;" d="M682 97L683 98L682 97z"/>
<path style="fill:#5a3962; stroke:none;" d="M718 97L719 98L718 97M145 98L146 99L145 98M282 98L283 99L282 98M321 98L322 99L321 98z"/>
<path style="fill:#a31ba2; stroke:none;" d="M496 98L496 101L497 101L496 98M561 98L562 99L561 98M657 98L658 99L657 98z"/>
<path style="fill:#5a3962; stroke:none;" d="M681 98L682 99L681 98z"/>
<path style="fill:#a31ba2; stroke:none;" d="M681 99L682 100L681 99M719.333 99.6667L719.667 100.333L719.333 99.6667z"/>
<path style="fill:#5a3962; stroke:none;" d="M146.333 100.667L146.667 101.333L146.333 100.667M228 100L228 103L229 103L228 100M281.333 100.667L281.667 101.333L281.333 100.667M299 100L300 101L299 100M305 100L306 101L305 100M322 100L323 101L322 100z"/>
<path style="fill:#a31ba2; stroke:none;" d="M658 100L659 101L658 100M698 100L698 101L703 101L698 100z"/>
<path style="fill:#5a3962; stroke:none;" d="M201 101L202 102L201 101M297 101L298 102L297 101z"/>
<path style="fill:#a31ba2; stroke:none;" d="M516 101L516 104L517 104L516 101M562 101L563 102L562 101M630 101L631 102L630 101z"/>
<path style="fill:#01010e; stroke:none;" d="M631.603 102.032C627.549 105.167 630 120.245 630 125L630 174C630 179.638 628.081 189.568 630.603 194.682C632.454 198.435 640.075 196.641 642.892 194.987C649.069 191.359 648.969 180.27 648.999 174C649.097 153.797 651.253 131.945 647.854 112C646.843 106.065 638.4 96.7764 631.603 102.032z"/>
<path style="fill:#5a3962; stroke:none;" d="M637 101L638 102L637 101z"/>
<path style="fill:#a31ba2; stroke:none;" d="M638.667 101.333L639.333 101.667L638.667 101.333M680 101L681 102L680 101z"/>
<path style="fill:#5a3962; stroke:none;" d="M696 101L697 102L696 101M116 102L116 141L117 141C117 129.828 120.311 112.274 116 102z"/>
<path style="fill:#01010e; stroke:none;" d="M117 102L117 141C121.2 140.997 127.071 141.658 130.347 138.436C135.628 133.242 136.237 108.821 130.486 103.742C127.247 100.882 120.993 102 117 102z"/>
<path style="fill:#5a3962; stroke:none;" d="M129 102L130 103L129 102M180 102L180 142L181 142C181 130.566 184.411 112.512 180 102M296 102L297 103L296 102M346 102L346 208L347 208L347 134L346 102M361 102L361 208L362 208L362 134L361 102z"/>
<path style="fill:#a31ba2; stroke:none;" d="M642 102L643 103L642 102M659 102L660 103L659 102M720.333 102.667L720.667 103.333L720.333 102.667z"/>
<path style="fill:#5a3962; stroke:none;" d="M147 103L147 106L148 106L147 103M250 103L250 106L251 106L250 103M280 103L281 104L280 103M308 103L309 104L308 103M323.333 103.667L323.667 104.333L323.333 103.667M679 103L680 104L679 103M295 104L296 105L295 104M495 104L496 105L495 104z"/>
<path style="fill:#a31ba2; stroke:none;" d="M563 104L564 105L563 104M679.333 104.667L679.667 105.333L679.333 104.667z"/>
<path style="fill:#5a3962; stroke:none;" d="M693 104L694 105L693 104z"/>
<path style="fill:#a31ba2; stroke:none;" d="M707 104L708 105L707 104z"/>
<path style="fill:#5a3962; stroke:none;" d="M132.333 105.667L132.667 106.333L132.333 105.667M309 105L309 108L310 108L309 105z"/>
<path style="fill:#a31ba2; stroke:none;" d="M495 105L495 108L496 108L495 105M660.333 105.667L660.667 106.333L660.333 105.667z"/>
<path style="fill:#5a3962; stroke:none;" d="M707 105L708 106L707 105M227 106L227 110L228 110L227 106M279 106L279 109L280 109L279 106M294.333 106.667L294.667 107.333L294.333 106.667z"/>
<path style="fill:#a31ba2; stroke:none;" d="M646 106L647 107L646 106M692 106L693 107L692 106z"/>
<path style="fill:#5a3962; stroke:none;" d="M721 106L722 107L721 106M324 107L324 111L325 111L324 107z"/>
<path style="fill:#a31ba2; stroke:none;" d="M517 107L517 110L518 110L517 107M564 107L565 108L564 107M708.333 107.667L708.667 108.333L708.333 107.667M721 107L721 110L722 110L721 107z"/>
<path style="fill:#5a3962; stroke:none;" d="M678 108L679 109L678 108M133 109L133 115L134 115L133 109M148 109L148 130L149 130L148 109M251 109L251 112L252 112L251 109M565 109L566 110L565 109z"/>
<path style="fill:#a31ba2; stroke:none;" d="M647 109L648 110L647 109M661 109L661 112L662 112L661 109M678 109L678 113L679 113L678 109M691 109L691 113L692 113L691 109M565 110L566 111L565 110z"/>
<path style="fill:#5a3962; stroke:none;" d="M293 111L293 117L294 117L293 111M310 111L310 135L311 135L310 111z"/>
<path style="fill:#a31ba2; stroke:none;" d="M494 111L494 114L495 114L494 111z"/>
<path style="fill:#5a3962; stroke:none;" d="M1895 111C1893.87 118.986 1896.93 122.905 1905 123L1905 119C1899.18 119.494 1898.07 115.934 1900 111L1895 111z"/>
<path style="fill:#ededee; stroke:none;" d="M1900.3 112.086C1896.49 114.334 1899.56 121.509 1903.4 118.914C1906.46 116.845 1904.37 109.682 1900.3 112.086z"/>
<path style="fill:#5a3962; stroke:none;" d="M1904 111L1905 112L1904 111M278 112L278 120L279 120L278 112z"/>
<path style="fill:#a31ba2; stroke:none;" d="M506 112L507 113L506 112z"/>
<path style="fill:#5a3962; stroke:none;" d="M566 112L567 113L566 112M226 113L226 117L227 117L226 113M506 113L507 114L506 113z"/>
<path style="fill:#a31ba2; stroke:none;" d="M518 113L518 116L519 116L518 113M566 113L567 114L566 113M648 113L648 117L649 117L648 113z"/>
<path style="fill:#5a3962; stroke:none;" d="M239 114L239 117L240 117L239 114z"/>
<path style="fill:#01010e; stroke:none;" d="M506 114L498 174L516 174C512.602 155.762 514.007 130.662 506 114z"/>
<path style="fill:#5a3962; stroke:none;" d="M252 115L252 118L253 118L252 115z"/>
<path style="fill:#a31ba2; stroke:none;" d="M505 115L505 118L506 118L505 115M507 115L507 119L508 119L507 115z"/>
<path style="fill:#5a3962; stroke:none;" d="M567 115L568 116L567 115z"/>
<path style="fill:#a31ba2; stroke:none;" d="M709 115L709 130L710 130L709 115M567 116L568 117L567 116M662 116L662 181L663 181L663 137L662 116M722 116L722 130L723 130L722 116z"/>
<path style="fill:#01010e; stroke:none;" d="M239 117L232 174L248 174C246.683 157.318 245.827 132.208 239 117z"/>
<path style="fill:#5a3962; stroke:none;" d="M325 117L325 135L326 135L325 117z"/>
<path style="fill:#a31ba2; stroke:none;" d="M493 117L493 121L494 121L493 117M691 117L691 121L692 121L691 117z"/>
<path style="fill:#5a3962; stroke:none;" d="M505 118L506 119L505 118M568 118L569 119L568 118M225 119L225 123L226 123L225 119M238 119L238 123L239 123L238 119z"/>
<path style="fill:#a31ba2; stroke:none;" d="M519 119L519 122L520 122L519 119M568 119L569 120L568 119z"/>
<path style="fill:#5a3962; stroke:none;" d="M240 120L240 123L241 123L240 120z"/>
<path style="fill:#a31ba2; stroke:none;" d="M678 120L678 124L679 124L678 120z"/>
<path style="fill:#5a3962; stroke:none;" d="M253 121L253 124L254 124L253 121z"/>
<path style="fill:#a31ba2; stroke:none;" d="M569.333 121.667L569.667 122.333L569.333 121.667M504 122L504 126L505 126L504 122M508 122L508 125L509 125L508 122M692.333 123.667L692.667 124.333L692.333 123.667M492 124L492 127L493 127L492 124M570.333 124.667L570.667 125.333L570.333 124.667z"/>
<path style="fill:#5a3962; stroke:none;" d="M133 125L133 132L134 132L133 125M508 125L509 126L508 125z"/>
<path style="fill:#a31ba2; stroke:none;" d="M520 125L520 128L521 128L520 125z"/>
<path style="fill:#5a3962; stroke:none;" d="M693 125L694 126L693 125M224 126L224 130L225 130L224 126M241 126L241 130L242 130L241 126z"/>
<path style="fill:#a31ba2; stroke:none;" d="M679.333 126.667L679.667 127.333L679.333 126.667z"/>
<path style="fill:#5a3962; stroke:none;" d="M237 127L237 131L238 131L237 127M254 127L254 131L255 131L254 127z"/>
<path style="fill:#a31ba2; stroke:none;" d="M571.333 127.667L571.667 128.333L571.333 127.667M694 127L695 128L694 127z"/>
<path style="fill:#5a3962; stroke:none;" d="M695 128L696 129L695 128z"/>
<path style="fill:#a31ba2; stroke:none;" d="M503 129L503 133L504 133L503 129M509 129L509 132L510 132L509 129M560 129L561 130L560 129M680.333 129.667L680.667 130.333L680.333 129.667z"/>
<path style="fill:#5a3962; stroke:none;" d="M491 130L492 131L491 130M560 130L561 131L560 130z"/>
<path style="fill:#a31ba2; stroke:none;" d="M572.333 130.667L572.667 131.333L572.333 130.667M491 131L491 134L492 134L491 131M521 131L521 134L522 134L521 131M561 131L562 132L561 131z"/>
<path style="fill:#5a3962; stroke:none;" d="M147 132L147 135L148 135L147 132z"/>
<path style="fill:#a31ba2; stroke:none;" d="M681 132L682 133L681 132M698 132L699 133L698 132z"/>
<path style="fill:#5a3962; stroke:none;" d="M223 133L223 136L224 136L223 133M242 133L242 137L243 137L242 133M255 133L255 137L256 137L255 133M560 133L561 134L560 133z"/>
<path style="fill:#a31ba2; stroke:none;" d="M573.333 133.667L573.667 134.333L573.333 133.667M699 133L700 134L699 133z"/>
<path style="fill:#5a3962; stroke:none;" d="M236 134L236 138L237 138L236 134z"/>
<path style="fill:#a31ba2; stroke:none;" d="M560 134L560 152L561 152L560 134M562 134L563 135L562 134z"/>
<path style="fill:#5a3962; stroke:none;" d="M682 134L683 135L682 134z"/>
<path style="fill:#a31ba2; stroke:none;" d="M700 134L701 135L700 134z"/>
<path style="fill:#5a3962; stroke:none;" d="M132.333 135.667L132.667 136.333L132.333 135.667z"/>
<path style="fill:#a31ba2; stroke:none;" d="M510 135L510 139L511 139L510 135M683 135L684 136L683 135M701 135L702 136L701 135z"/>
<path style="fill:#5a3962; stroke:none;" d="M146.333 136.667L146.667 137.333L146.333 136.667z"/>
<path style="fill:#a31ba2; stroke:none;" d="M502 136L502 140L503 140L502 136M574.333 136.667L574.667 137.333L574.333 136.667M702 136L703 137L702 136z"/>
<path style="fill:#5a3962; stroke:none;" d="M131 137L132 138L131 137z"/>
<path style="fill:#a31ba2; stroke:none;" d="M490 137L490 140L491 140L490 137M522 137L522 140L523 140L522 137M563 137L564 138L563 137M684 137L685 138L684 137M703 137L704 138L703 137M685 138L686 139L685 138M704 138L705 139L704 138z"/>
<path style="fill:#5a3962; stroke:none;" d="M130 139L131 140L130 139M145 139L146 140L145 139M222 139L222 143L223 143L222 139M256 139L256 143L257 143L256 139z"/>
<path style="fill:#a31ba2; stroke:none;" d="M575.333 139.667L575.667 140.333L575.333 139.667M705 139L706 140L705 139z"/>
<path style="fill:#5a3962; stroke:none;" d="M126.667 140.333L127.333 140.667L126.667 140.333M243 140L243 143L244 143L243 140z"/>
<path style="fill:#a31ba2; stroke:none;" d="M564 140L565 141L564 140M706 140L707 141L706 140z"/>
<path style="fill:#5a3962; stroke:none;" d="M144 141L145 142L144 141M235 141L235 145L236 145L235 141z"/>
<path style="fill:#a31ba2; stroke:none;" d="M707 141L708 142L707 141z"/>
<path style="fill:#5a3962; stroke:none;" d="M143 142L144 143L143 142z"/>
<path style="fill:#a31ba2; stroke:none;" d="M511 142L511 145L512 145L511 142M576.333 142.667L576.667 143.333L576.333 142.667M688 142L689 143L688 142M708 142L709 143L708 142z"/>
<path style="fill:#5a3962; stroke:none;" d="M142 143L143 144L142 143z"/>
<path style="fill:#a31ba2; stroke:none;" d="M523 143L523 146L524 146L523 143M565 143L566 144L565 143M585 143L585 156L586 156L585 143M689 143L690 144L689 143z"/>
<path style="fill:#5a3962; stroke:none;" d="M709 143L710 144L709 143M140 144L141 145L140 144z"/>
<path style="fill:#a31ba2; stroke:none;" d="M489 144L489 147L490 147L489 144M501 144L501 147L502 147L501 144M690 144L691 145L690 144z"/>
<path style="fill:#5a3962; stroke:none;" d="M138 145L139 146L138 145M257 145L257 149L258 149L257 145M511 145L512 146L511 145z"/>
<path style="fill:#a31ba2; stroke:none;" d="M577 145L578 146L577 145M691 145L692 146L691 145z"/>
<path style="fill:#5a3962; stroke:none;" d="M140 146L141 147L140 146M221 146L221 149L222 149L221 146M244 146L244 150L245 150L244 146z"/>
<path style="fill:#a31ba2; stroke:none;" d="M566 146L567 147L566 146M692 146L693 147L692 146M693 147L694 148L693 147z"/>
<path style="fill:#5a3962; stroke:none;" d="M143 148L144 149L143 148M234 148L234 152L235 152L234 148z"/>
<path style="fill:#a31ba2; stroke:none;" d="M578 148L579 149L578 148M694 148L695 149L694 148M713 148L714 149L713 148z"/>
<path style="fill:#5a3962; stroke:none;" d="M397.618 150.086C395.03 151.933 397.896 156.245 400.682 154.825C404.108 153.078 400.573 147.976 397.618 150.086z"/>
<path style="fill:#a31ba2; stroke:none;" d="M512 149L512 152L513 152L512 149M524 149L524 152L525 152L524 149M567 149L568 150L567 149M695 149L696 150L695 149M714 149L715 150L714 149z"/>
<path style="fill:#5a3962; stroke:none;" d="M144 150L145 151L144 150z"/>
<path style="fill:#a31ba2; stroke:none;" d="M432 150L432 208L433 208L433 169L432 150M451 150L452 151L451 150M488 150L488 154L489 154L488 150M696 150L697 151L696 150z"/>
<path style="fill:#5a3962; stroke:none;" d="M116 151L116 208L117 208L117 169L116 151M126.667 151.333L127.333 151.667L126.667 151.333M258 151L258 155L259 155L258 151z"/>
<path style="fill:#ededee; stroke:none;" d="M398 151L398 154L401 154L401 151L398 151z"/>
<path style="fill:#a31ba2; stroke:none;" d="M500 151L500 154L501 154L500 151M579 151L580 152L579 151M697 151L698 152L697 151z"/>
<path style="fill:#5a3962; stroke:none;" d="M130 152L131 153L130 152M145 152L146 153L145 152M220 152L220 156L221 156L220 152z"/>
<path style="fill:#a31ba2; stroke:none;" d="M568 152L569 153L568 152M698 152L699 153L698 152M716 152L717 153L716 152z"/>
<path style="fill:#5a3962; stroke:none;" d="M131 153L132 154L131 153M200 153L201 154L200 153M245 153L245 157L246 157L245 153z"/>
<path style="fill:#a31ba2; stroke:none;" d="M699 153L700 154L699 153z"/>
<path style="fill:#5a3962; stroke:none;" d="M717 153L718 154L717 153M132.333 154.667L132.667 155.333L132.333 154.667M180 154L180 196L181 196C181 184.043 184.611 164.988 180 154M500 154L501 155L500 154z"/>
<path style="fill:#a31ba2; stroke:none;" d="M580 154L581 155L580 154M700 154L701 155L700 154z"/>
<path style="fill:#5a3962; stroke:none;" d="M146.333 155.667L146.667 156.333L146.333 155.667M233 155L233 159L234 159L233 155z"/>
<path style="fill:#a31ba2; stroke:none;" d="M513 155L513 159L514 159L513 155M525 155L525 158L526 158L525 155M569 155L570 156L569 155M701 155L702 156L701 155M718 155L719 156L718 155M702 156L703 157L702 156z"/>
<path style="fill:#5a3962; stroke:none;" d="M259 157L259 161L260 161L259 157z"/>
<path style="fill:#a31ba2; stroke:none;" d="M487 157L487 160L488 160L487 157M581 157L582 158L581 157M719 157L720 158L719 157z"/>
<path style="fill:#5a3962; stroke:none;" d="M133 158L133 164L134 164L133 158z"/>
<path style="fill:#a31ba2; stroke:none;" d="M499 158L499 162L500 162L499 158M570 158L571 159L570 158z"/>
<path style="fill:#5a3962; stroke:none;" d="M147 159L147 163L148 163L147 159M219 159L219 163L220 163L219 159M582 159L583 160L582 159M704 159L705 160L704 159z"/>
<path style="fill:#a31ba2; stroke:none;" d="M720 159L721 160L720 159z"/>
<path style="fill:#5a3962; stroke:none;" d="M246 160L246 163L247 163L246 160M310 160L310 184L311 184L310 160M325 160L325 180L326 180L325 160z"/>
<path style="fill:#a31ba2; stroke:none;" d="M582 160L583 161L582 160M705 160L706 161L705 160z"/>
<path style="fill:#5a3962; stroke:none;" d="M1257.06 160.851C1250.77 162.728 1253.77 171.803 1259.89 170.508C1266.41 169.129 1263.38 158.964 1257.06 160.851z"/>
<path style="fill:#a31ba2; stroke:none;" d="M526 161L526 164L527 164L526 161M571 161L572 162L571 161z"/>
<path style="fill:#5a3962; stroke:none;" d="M721 161L722 162L721 161z"/>
<path style="fill:#a31ba2; stroke:none;" d="M514 162L514 165L515 165L514 162z"/>
<path style="fill:#5a3962; stroke:none;" d="M583 162L584 163L583 162z"/>
<path style="fill:#a31ba2; stroke:none;" d="M679 162L679 163L692 163L679 162M706 162L707 163L706 162M721 162L722 163L721 162z"/>
<path style="fill:#5a3962; stroke:none;" d="M232 163L232 167L233 167L232 163M260 163L260 167L261 167L260 163z"/>
<path style="fill:#a31ba2; stroke:none;" d="M486 163L486 167L487 167L486 163M583 163L584 164L583 163M678 163L678 175L679 175L678 163M707 163L708 164L707 163z"/>
<path style="fill:#ededee; stroke:none;" d="M1257 169C1266.15 165.472 1253.53 159.924 1257 169z"/>
<path style="fill:#a31ba2; stroke:none;" d="M572 164L573 165L572 164z"/>
<path style="fill:#5a3962; stroke:none;" d="M722 164L723 165L722 164M218 165L218 169L219 169L218 165z"/>
<path style="fill:#a31ba2; stroke:none;" d="M498 165L498 169L499 169L498 165z"/>
<path style="fill:#5a3962; stroke:none;" d="M584 165L585 166L584 165z"/>
<path style="fill:#a31ba2; stroke:none;" d="M708.333 165.667L708.667 166.333L708.333 165.667M722 165L723 166L722 165z"/>
<path style="fill:#5a3962; stroke:none;" d="M247 166L247 170L248 170L247 166z"/>
<path style="fill:#a31ba2; stroke:none;" d="M584 166L585 167L584 166M527 167L527 170L528 170L527 167M573 167L574 168L573 167M585 168L585 170L587 170L587 168L585 168M709 168L710 169L709 168z"/>
<path style="fill:#5a3962; stroke:none;" d="M723 168L724 169L723 168M148 169L148 196L149 196L148 169M261 169L261 173L262 173L261 169z"/>
<path style="fill:#a31ba2; stroke:none;" d="M515 169L515 172L516 172L515 169z"/>
<path style="fill:#5a3962; stroke:none;" d="M709 169L710 170L709 169z"/>
<path style="fill:#a31ba2; stroke:none;" d="M723.333 169.667L723.667 170.333L723.333 169.667z"/>
<path style="fill:#5a3962; stroke:none;" d="M231 170L231 174L232 174L231 170z"/>
<path style="fill:#a31ba2; stroke:none;" d="M485 170L485 173L486 173L485 170M574 170L575 171L574 170M710 171L710 175L711 175L710 171z"/>
<path style="fill:#5a3962; stroke:none;" d="M951.318 172.047C946.908 174.776 951.187 181.462 955.566 178.777C960.003 176.056 955.763 169.297 951.318 172.047M217 172L217 176L218 176L217 172z"/>
<path style="fill:#a31ba2; stroke:none;" d="M497.333 172.667L497.667 173.333L497.333 172.667z"/>
<path style="fill:#5a3962; stroke:none;" d="M248 173L249 174L248 173z"/>
<path style="fill:#a31ba2; stroke:none;" d="M528 173L528 176L529 176L528 173M575 173L576 174L575 173z"/>
<path style="fill:#ededee; stroke:none;" d="M951 177L956 177C954.723 173.156 952.277 173.156 951 177z"/>
<path style="fill:#5a3962; stroke:none;" d="M262 175L262 179L263 179L262 175M278 176L278 184L279 184L278 176M484 176L485 177L484 176z"/>
<path style="fill:#a31ba2; stroke:none;" d="M576 176L577 177L576 176M484 177L484 180L485 180L484 177z"/>
<path style="fill:#5a3962; stroke:none;" d="M216 179L216 182L217 182L216 179M293 179L293 186L294 186L293 179z"/>
<path style="fill:#a31ba2; stroke:none;" d="M529 179L529 182L530 182L529 179M577 179L578 180L577 179z"/>
<path style="fill:#5a3962; stroke:none;" d="M263 181L263 185L264 185L263 181z"/>
<path style="fill:#a31ba2; stroke:none;" d="M648 181L648 186L649 186L648 181z"/>
<path style="fill:#5a3962; stroke:none;" d="M662 181L663 182L662 181z"/>
<path style="fill:#a31ba2; stroke:none;" d="M578 182L579 183L578 182M483 183L483 186L484 186L483 183M692 183L692 188L693 188L692 183M710 183L710 190L711 190L710 183z"/>
<path style="fill:#5a3962; stroke:none;" d="M215 185L215 189L216 189L215 185M324 185L324 189L325 189L324 185z"/>
<path style="fill:#a31ba2; stroke:none;" d="M496 185L497 186L496 185M517 185L518 186L517 185M530 185L530 188L531 188L530 185M579 185L580 186L579 185M679 185L679 189L680 189L679 185z"/>
<path style="fill:#5a3962; stroke:none;" d="M229 186L229 189L230 189L229 186M250 186L250 190L251 190L250 186z"/>
<path style="fill:#a31ba2; stroke:none;" d="M661 186L661 189L662 189L661 186M723 186L723 190L724 190L723 186z"/>
<path style="fill:#5a3962; stroke:none;" d="M264 187L264 191L265 191L264 187M279 187L279 190L280 190L279 187z"/>
<path style="fill:#a31ba2; stroke:none;" d="M495 187L495 191L496 191L495 187z"/>
<path style="fill:#5a3962; stroke:none;" d="M309 188L309 191L310 191L309 188z"/>
<path style="fill:#a31ba2; stroke:none;" d="M518 188L518 192L519 192L518 188M580 188L581 189L580 188M647.333 188.667L647.667 189.333L647.333 188.667z"/>
<path style="fill:#5a3962; stroke:none;" d="M294.333 189.667L294.667 190.333L294.333 189.667M482 189L483 190L482 189z"/>
<path style="fill:#a31ba2; stroke:none;" d="M482 190L482 193L483 193L482 190M693.333 190.667L693.667 191.333L693.333 190.667z"/>
<path style="fill:#5a3962; stroke:none;" d="M323.333 191.667L323.667 192.333L323.333 191.667z"/>
<path style="fill:#a31ba2; stroke:none;" d="M531 191L531 194L532 194L531 191M581 191L582 192L581 191M646 191L647 192L646 191M660.333 191.667L660.667 192.333L660.333 191.667M680.333 191.667L680.667 192.333L680.333 191.667z"/>
<path style="fill:#5a3962; stroke:none;" d="M214 192L214 195L215 195L214 192M228 192L228 196L229 196L228 192M280.333 192.667L280.667 193.333L280.333 192.667M295.333 192.667L295.667 193.333L295.333 192.667M308.333 192.667L308.667 193.333L308.333 192.667z"/>
<path style="fill:#a31ba2; stroke:none;" d="M709.333 192.667L709.667 193.333L709.333 192.667M722.333 192.667L722.667 193.333L722.333 192.667z"/>
<path style="fill:#5a3962; stroke:none;" d="M251 193L251 196L252 196L251 193M265 193L265 197L266 197L265 193z"/>
<path style="fill:#a31ba2; stroke:none;" d="M645 193L646 194L645 193z"/>
<path style="fill:#5a3962; stroke:none;" d="M680 193L681 194L680 193z"/>
<path style="fill:#a31ba2; stroke:none;" d="M694 193L695 194L694 193z"/>
<path style="fill:#5a3962; stroke:none;" d="M296 194L297 195L296 194M307 194L308 195L307 194z"/>
<path style="fill:#a31ba2; stroke:none;" d="M494 194L494 198L495 198L494 194M582 194L583 195L582 194M644 194L645 195L644 194M659.333 194.667L659.667 195.333L659.333 194.667M708 194L709 195L708 194z"/>
<path style="fill:#5a3962; stroke:none;" d="M281 195L282 196L281 195M297 195L298 196L297 195M306 195L307 196L306 195M322 195L323 196L322 195z"/>
<path style="fill:#a31ba2; stroke:none;" d="M519 195L519 198L520 198L519 195M681.333 195.667L681.667 196.333L681.333 195.667M695 195L696 196L695 195z"/>
<path style="fill:#5a3962; stroke:none;" d="M202 196L202 208L203 208L202 196M298 196L299 197L298 196M305 196L306 197L305 196z"/>
<path style="fill:#a31ba2; stroke:none;" d="M481 196L481 199L482 199L481 196M630 196L631 197L630 196z"/>
<path style="fill:#5a3962; stroke:none;" d="M637 196L638 197L637 196z"/>
<path style="fill:#a31ba2; stroke:none;" d="M638.667 196.333L639.333 196.667L638.667 196.333M706 196L707 197L706 196M721 196L722 197L721 196z"/>
<path style="fill:#5a3962; stroke:none;" d="M282.333 197.667L282.667 198.333L282.333 197.667M321.333 197.667L321.667 198.333L321.333 197.667M532 197L533 198L532 197z"/>
<path style="fill:#a31ba2; stroke:none;" d="M583 197L584 198L583 197M658 197L659 198L658 197M699 197L699 198L704 198L699 197z"/>
<path style="fill:#5a3962; stroke:none;" d="M213 198L213 202L214 202L213 198M519 198L520 199L519 198z"/>
<path style="fill:#a31ba2; stroke:none;" d="M532 198L532 201L533 201L532 198M682 198L683 199L682 198M720 198L721 199L720 198z"/>
<path style="fill:#5a3962; stroke:none;" d="M227 199L227 203L228 203L227 199M252 199L252 203L253 203L252 199M266 199L266 203L267 203L266 199M283 199L284 200L283 199M320.333 199.667L320.667 200.333L320.333 199.667z"/>
<path style="fill:#a31ba2; stroke:none;" d="M657 199L658 200L657 199z"/>
<path style="fill:#5a3962; stroke:none;" d="M720 199L721 200L720 199z"/>
<path style="fill:#a31ba2; stroke:none;" d="M584 200L585 201L584 200M656 200L657 201L656 200M683 200L684 201L683 200M719 200L720 201L719 200z"/>
<path style="fill:#5a3962; stroke:none;" d="M134 201L134 208L135 208L134 201M284 201L285 202L284 201M319 201L320 202L319 201z"/>
<path style="fill:#a31ba2; stroke:none;" d="M684 201L685 202L684 201z"/>
<path style="fill:#5a3962; stroke:none;" d="M285 202L286 203L285 202z"/>
<path style="fill:#a31ba2; stroke:none;" d="M493 202L493 205L494 205L493 202M520 202L520 205L521 205L520 202M718 202L719 203L718 202z"/>
<path style="fill:#5a3962; stroke:none;" d="M286 203L287 204L286 203z"/>
<path style="fill:#a31ba2; stroke:none;" d="M480 203L480 206L481 206L480 203z"/>
<path style="fill:#5a3962; stroke:none;" d="M533 203L534 204L533 203z"/>
<path style="fill:#a31ba2; stroke:none;" d="M585 203L586 204L585 203M653 203L654 204L653 203M717 203L718 204L717 203z"/>
<path style="fill:#5a3962; stroke:none;" d="M287 204L288 205L287 204z"/>
<path style="fill:#a31ba2; stroke:none;" d="M533 204L533 207L534 207L533 204M652 204L653 205L652 204M687 204L688 205L687 204M716 204L717 205L716 204z"/>
<path style="fill:#5a3962; stroke:none;" d="M149 205L149 208L150 208L149 205M212 205L212 208L213 208L212 205M267 205L267 208L268 208L267 205M288 205L289 206L288 205M315 205L316 206L315 205M493 205L494 206L493 205z"/>
<path style="fill:#a31ba2; stroke:none;" d="M650 205L651 206L650 205M688 205L689 206L688 205z"/>
<path style="fill:#5a3962; stroke:none;" d="M715 205L716 206L715 205M226.333 206.667L226.667 207.333L226.333 206.667M253.333 206.667L253.667 207.333L253.333 206.667M290 206L291 207L290 206M314 206L315 207L314 206z"/>
<path style="fill:#a31ba2; stroke:none;" d="M586 206L587 207L586 206M647 206L648 207L647 206z"/>
<path style="fill:#5a3962; stroke:none;" d="M648 206L649 207L648 206z"/>
<path style="fill:#a31ba2; stroke:none;" d="M690 206L691 207L690 206M713 206L714 207L713 206z"/>
<path style="fill:#5a3962; stroke:none;" d="M292 207L293 208L292 207M312 207L313 208L312 207z"/>
<path style="fill:#a31ba2; stroke:none;" d="M643.667 207.333L644.333 207.667L643.667 207.333M692 207L693 208L692 207M711 207L712 208L711 207z"/>
<path style="fill:#5a3962; stroke:none;" d="M294.667 208.333L295.333 208.667L294.667 208.333M308.667 208.333L309.333 208.667L308.667 208.333M695 208L696 209L695 208z"/>
<path style="fill:#a31ba2; stroke:none;" d="M696 208L697 209L696 208M706.667 208.333L707.333 208.667L706.667 208.333z"/>
<path style="fill:#5a3962; stroke:none;" d="M1142.28 280.171C1139.4 281.694 1141.78 285.815 1144.4 283.918C1146.5 282.392 1144.75 278.867 1142.28 280.171z"/>
<path style="fill:#ededee; stroke:none;" d="M1142 281L1142 284L1145 283L1145 282L1142 281z"/>
<path style="fill:#5a3962; stroke:none;" d="M636.21 295.971C632.118 297.034 633.741 303.351 637.87 302.248C642.008 301.144 640.343 294.897 636.21 295.971z"/>
<path style="fill:#ededee; stroke:none;" d="M636 297L635 301L639 301L638 297L636 297z"/>
<path style="fill:#5a3962; stroke:none;" d="M1354 362L1354 363L1362 363L1354 362M1352 363L1351 365L1352 363z"/>
<path style="fill:#a31ba2; stroke:none;" d="M1353.04 363.858C1339.96 369.434 1350.34 388.524 1363 382.566C1376.51 376.201 1365.82 358.409 1353.04 363.858z"/>
<path style="fill:#5a3962; stroke:none;" d="M1363 363L1364 364L1363 363z"/>
<path style="fill:#f90ef4; stroke:none;" d="M1355.02 364.657C1342.54 368.514 1350.25 385.866 1361.98 381.258C1373.34 376.798 1365.82 361.315 1355.02 364.657z"/>
<path style="fill:#5a3962; stroke:none;" d="M1365 364L1366 365L1365 364M1349 365L1350 366L1349 365M1366 365L1367 366L1366 365M1367 366L1368 367L1367 366M1348 367L1349 368L1348 367M1347 368L1348 369L1347 368M1369 369L1369 372L1370 372L1369 369M1346 370L1346 377L1347 377L1346 370M695.322 373.046C691.583 375.539 696.21 380.36 699.382 377.954C702.586 375.523 698.602 370.859 695.322 373.046M585 374.573C568.84 379.138 577.847 400.953 592.999 396.196C607.932 391.508 599.536 370.468 585 374.573z"/>
<path style="fill:#ededee; stroke:none;" d="M695 375L695 377L698 378L699 374L695 375z"/>
<path style="fill:#5a3962; stroke:none;" d="M1369 374L1369 377L1370 377L1369 374z"/>
<path style="fill:#ededee; stroke:none;" d="M585.001 375.657C570.979 379.913 578.865 399.326 591.999 395.343C606.114 391.064 598.416 371.584 585.001 375.657z"/>
<path style="fill:#5a3962; stroke:none;" d="M757.228 379.137C752.903 381.358 756.375 388.232 760.566 385.762C764.38 383.516 761.358 377.016 757.228 379.137M1347 378L1348 379L1347 378M1368 378L1369 379L1368 378M1348 379L1349 380L1348 379M1367 379L1368 380L1367 379z"/>
<path style="fill:#ededee; stroke:none;" d="M758 380L758 385L761 384L760 380L758 380z"/>
<path style="fill:#5a3962; stroke:none;" d="M1349 380L1350 381L1349 380M1366 380L1367 381L1366 380M1350 381L1351 382L1350 381M1365 381L1366 382L1365 381M1423 386L1432 382C1428.01 380.636 1425.43 382.935 1423 386z"/>
<path style="fill:#a31ba2; stroke:none;" d="M1432 381.508C1415.89 383.843 1420.53 405.513 1436 402.771C1449.84 400.316 1446 379.481 1432 381.508z"/>
<path style="fill:#5a3962; stroke:none;" d="M1436.67 381.333L1437.33 381.667L1436.67 381.333M1351 382L1352 383L1351 382M1364 382L1365 383L1364 382M1439 382L1440 383L1439 382M1353.67 383.333L1354.33 383.667L1353.67 383.333M1360.67 383.333L1361.33 383.667L1360.67 383.333z"/>
<path style="fill:#f90ef4; stroke:none;" d="M1429.02 383.742C1417.35 388.371 1425.83 405.525 1436.98 400.771C1448.95 395.671 1440.84 379.051 1429.02 383.742z"/>
<path style="fill:#5a3962; stroke:none;" d="M1442 384L1443 385L1442 384M1422 387L1423 388L1422 387M1444 387L1445 388L1444 387M1421 389L1422 390L1421 389M1445 389L1445 395L1446 395L1445 389M509 393L509 394C520.404 391.884 529.422 397.862 525 410C537.287 401.319 518.735 389.785 509 393z"/>
<path style="fill:#ededee; stroke:none;" d="M511.004 393.573C495.951 397.945 505.993 418.169 519.985 413.297C534.187 408.352 524.3 389.71 511.004 393.573z"/>
<path style="fill:#5a3962; stroke:none;" d="M505 410C502.948 403.352 504.539 399.81 508 394C502.495 396.862 499.312 405.67 505 410M1421 395L1422 396L1421 395M1444 395L1445 396L1444 395M1422 397L1423 398L1422 397M1423 398L1424 399L1423 398M1443 398L1444 399L1443 398M1442 399L1443 400L1442 399M1425 400L1426 401L1425 400M1282 409L1283 409L1290 402C1285.58 401.409 1283.3 405.21 1282 409z"/>
<path style="fill:#a31ba2; stroke:none;" d="M1290 401.657C1276.67 405.73 1282.75 426.34 1296 422.343C1309.62 418.235 1303.8 397.443 1290 401.657z"/>
<path style="fill:#5a3962; stroke:none;" d="M1296.67 401.333L1297.33 401.667L1296.67 401.333M1426 401L1427 402L1426 401M1440 401L1441 402L1440 401M1299 402L1300 403L1299 402M1428 402L1429 403L1428 402M1438 402L1439 403L1438 402z"/>
<path style="fill:#f90ef4; stroke:none;" d="M1289.04 403.742C1278.28 408.125 1286.11 424.488 1296.98 420.257C1308.91 415.617 1300.35 399.14 1289.04 403.742z"/>
<path style="fill:#5a3962; stroke:none;" d="M1301 404L1302 405L1301 404M1302 405L1303 406L1302 405M1303 406L1304 407L1303 406M632 418L633 418C636.206 407.241 648.728 406.083 654 416C655.167 410.164 648.023 407.018 643 407.275C636.526 407.607 632.953 412.005 632 418M1304 408L1304 415L1305 415L1304 408z"/>
<path style="fill:#ededee; stroke:none;" d="M639.043 409.573C626.377 413.427 634.712 431.944 646.996 428.066C661.558 423.467 652.688 405.42 639.043 409.573z"/>
<path style="fill:#5a3962; stroke:none;" d="M505 410L509 413L509 412L505 410M523.667 411.333L524.333 411.667L523.667 411.333M522 412L523 413L522 412M1358 412L1358 413L1363 414L1363 413L1358 412M509.667 413.333L510.333 413.667L509.667 413.333M511 414L511 415L522 414L511 414M1354.67 413.333L1355.33 413.667L1354.67 413.333z"/>
<path style="fill:#a31ba2; stroke:none;" d="M1356 413.573C1342.13 416.882 1347.67 436.722 1361 433.577C1375.16 430.236 1369.66 410.313 1356 413.573z"/>
<path style="fill:#5a3962; stroke:none;" d="M1352 414L1353 415L1352 414M1282.33 415.667L1282.67 416.333L1282.33 415.667M1350.67 415.333L1351.33 415.667L1350.67 415.333z"/>
<path style="fill:#f90ef4; stroke:none;" d="M1354.06 415.858C1343.27 420.611 1352.58 435.295 1362.96 431.107C1374.79 426.33 1364.53 411.242 1354.06 415.858z"/>
<path style="fill:#5a3962; stroke:none;" d="M1366 415L1367 416L1366 415M1303 416L1304 417L1303 416M1349 416L1350 417L1349 416M1283.33 417.667L1283.67 418.333L1283.33 417.667M1302 418L1303 419L1302 418M1348 418L1349 419L1348 418M1368 418L1369 419L1368 418M1284 419L1285 420L1284 419M1301 419L1302 420L1301 419M1369.33 419.667L1369.67 420.333L1369.33 419.667M632 420L633 425L634 425L632 420M1300 420L1301 421L1300 420M1347.33 420.667L1347.67 421.333L1347.33 420.667M654 421L653 425L654 425L654 421M1287 421L1288 422L1287 421M1298.67 421.333L1299.33 421.667L1298.67 421.333M1289 422L1290 423L1289 422M1296.67 422.333L1297.33 422.667L1296.67 422.333M164.133 424.029C156.463 428.389 163.288 440.13 170.891 435.968C178.995 431.533 171.852 419.64 164.133 424.029M634 425L635 426L634 425M652 425L653 426L652 425M1347.33 425.667L1347.67 426.333L1347.33 425.667z"/>
<path style="fill:#ededee; stroke:none;" d="M165.604 427.047C162.469 429.429 166.087 435.021 169.556 432.914C173.497 430.519 169.224 424.298 165.604 427.047z"/>
<path style="fill:#5a3962; stroke:none;" d="M635 426L636 427L635 426M651 426L652 427L651 426M1330 430C1333.55 430.547 1334.55 429.547 1334 426L1330 430M1369.33 426.667L1369.67 427.333L1369.33 426.667M636 427L636 428L646 430L646 429L636 427M646 428L646 429L651 428L646 428z"/>
<path style="fill:#ededee; stroke:none;" d="M1332 428L1332 430L1334 428L1332 428z"/>
<path style="fill:#5a3962; stroke:none;" d="M564 450L564 449C561.938 447.898 560.167 446.937 558.854 444.892C547.106 426.594 588.124 427.184 577.397 443.955C576.049 446.063 573.942 447.503 572 449C583.564 450.559 580.821 430.854 570 429.214C556.497 427.169 549.971 447.034 564 450M1349 429L1350 430L1349 429M1437.67 429.333L1438.33 429.667L1437.67 429.333z"/>
<path style="fill:#ededee; stroke:none;" d="M564.015 430.703C550.751 435.304 559.239 454.322 571.999 449.142C585.192 443.786 576.5 426.372 564.015 430.703z"/>
<path style="fill:#5a3962; stroke:none;" d="M1367 430L1368 431L1367 430M1432 430L1432 431L1435 431L1432 430z"/>
<path style="fill:#a31ba2; stroke:none;" d="M1435 430.472C1419.38 433.293 1425.42 454.018 1440 451.048C1454.41 448.112 1448.84 427.972 1435 430.472z"/>
<path style="fill:#5a3962; stroke:none;" d="M1441 430L1442 431L1441 430M1365.67 431.333L1366.33 431.667L1365.67 431.333M1430 431L1431 432L1430 431M1443 431L1444 432L1443 431M1352 432L1353 433L1352 432M1364 432L1365 433L1364 432M1428 432L1429 433L1428 432z"/>
<path style="fill:#f90ef4; stroke:none;" d="M1432.02 432.742C1420.75 437.243 1430.46 453.388 1440.98 449.258C1453.53 444.335 1443.75 428.06 1432.02 432.742z"/>
<path style="fill:#5a3962; stroke:none;" d="M1445 432L1446 433L1445 432M478 433L478 434L481 434L478 433M1354 433L1355 434L1354 433M1362 433L1363 434L1362 433M1446 433L1447 434L1446 433M482 434L482 435C492.313 438.516 493.521 451.173 482 454.427C467.329 458.57 463.765 442.206 475 435C463.049 433.407 463.581 454.509 476 455.891C491.409 457.607 498.813 436.596 482 434z"/>
<path style="fill:#ededee; stroke:none;" d="M475.001 434.819C459.583 440.34 469.597 459.684 483.996 454.107C497.968 448.695 487.814 430.232 475.001 434.819z"/>
<path style="fill:#5a3962; stroke:none;" d="M1426.33 434.667L1426.67 435.333L1426.33 434.667M1447 435L1448 436L1447 435M1425.33 436.667L1425.67 437.333L1425.33 436.667M1448 437L1449 438L1448 437M1449.33 440.667L1449.67 441.333L1449.33 440.667M926.318 442.086C922.128 444.505 926.736 450.698 930.393 447.953C933.629 445.523 929.847 440.049 926.318 442.086z"/>
<path style="fill:#ededee; stroke:none;" d="M926 447L930 447L930 443L926 447z"/>
<path style="fill:#5a3962; stroke:none;" d="M1425.33 443.667L1425.67 444.333L1425.33 443.667M1290 444L1290 445L1293 445L1290 444z"/>
<path style="fill:#a31ba2; stroke:none;" d="M1293 444.654C1278.92 445.602 1280.96 466.027 1295 464.876C1308.16 463.796 1305.9 443.785 1293 444.654z"/>
<path style="fill:#5a3962; stroke:none;" d="M1295.67 444.333L1296.33 444.667L1295.67 444.333M1448 444L1449 445L1448 444M1287.67 445.333L1288.33 445.667L1287.67 445.333M1298.67 445.333L1299.33 445.667L1298.67 445.333M1426 445L1427 446L1426 445M1286 446L1287 447L1286 446z"/>
<path style="fill:#f90ef4; stroke:none;" d="M1290.02 446.743C1278.87 451.111 1286.53 467.17 1296.98 462.986C1308.2 458.496 1300.75 442.54 1290.02 446.743z"/>
<path style="fill:#5a3962; stroke:none;" d="M1300 446L1301 447L1300 446M1447 446L1448 447L1447 446M1285 447L1286 448L1285 447M1301 447L1302 448L1301 447M1427 447L1428 448L1427 447M1446 447L1447 448L1446 447M1074.11 448.786C1067.22 451.271 1070.74 462.748 1077.94 460.214C1084.98 457.737 1081.36 446.173 1074.11 448.786M1284 448L1285 449L1284 448M1302 448L1303 449L1302 448M1428 448L1429 449L1428 448M1445 448L1446 449L1445 448M1303 449L1304 450L1303 449M1429 449L1430 450L1429 449M1444 449L1445 450L1444 449M565 450L565 451L571 451L565 450M1283 450L1284 451L1283 450M1431 450L1432 451L1431 450z"/>
<path style="fill:#ededee; stroke:none;" d="M1074.59 452.086C1071.84 454.016 1074.47 458.925 1077.54 456.914C1080.56 454.942 1077.57 450 1074.59 452.086z"/>
<path style="fill:#5a3962; stroke:none;" d="M1433 451L1433 452L1437 452L1433 451M1438 451L1438 452L1441 452L1438 451M1282 452L1282 457L1283 457L1282 452M1304 452L1304 458L1305 458L1304 452M1224.06 453.786C1217.1 456.235 1220.72 467.123 1227.89 464.381C1234.59 461.822 1230.91 451.374 1224.06 453.786M617 456L617 457C626.431 456.283 633.527 459.083 632 470C639.373 460.254 625.222 453.571 617 456z"/>
<path style="fill:#ededee; stroke:none;" d="M621.001 456.459C607.113 458.48 611.046 477.307 624.999 474.772C637.383 472.521 633.095 454.699 621.001 456.459M1224.34 457.083C1221.59 458.789 1223.78 462.968 1226.72 461.593C1230.06 460.034 1227.58 455.076 1224.34 457.083z"/>
<path style="fill:#5a3962; stroke:none;" d="M615 457L616 458L615 457M614 458L615 459L614 458M1283.33 458.667L1283.67 459.333L1283.33 458.667M613 459L612 462L613 459M1284 461L1285 462L1284 461M1302 461L1303 462L1302 461M611 462L611 470L612 470L611 462M1285 462L1286 463L1285 462M1301 462L1302 463L1301 462M1359 462L1359 463L1365 463L1359 462M1287 463L1288 464L1287 463M1300 463L1301 464L1300 463M1357 463L1358 464L1357 463z"/>
<path style="fill:#a31ba2; stroke:none;" d="M1358 463.742C1344.36 469 1354.03 487.367 1366.98 482.258C1379.62 477.273 1370.01 459.115 1358 463.742z"/>
<path style="fill:#5a3962; stroke:none;" d="M1288.67 464.333L1289.33 464.667L1288.67 464.333M1298.67 464.333L1299.33 464.667L1298.67 464.333M1355 464L1356 465L1355 464M1367.67 464.333L1368.33 464.667L1367.67 464.333M1290 465L1290 466L1298 466L1290 465M1354 465L1355 466L1354 465z"/>
<path style="fill:#f90ef4; stroke:none;" d="M1358.02 465.742C1347.29 470.007 1355.99 485.243 1365.96 481.257C1377.53 476.628 1368.68 461.503 1358.02 465.742z"/>
<path style="fill:#5a3962; stroke:none;" d="M1369 465L1370 466L1369 465M1353 466L1354 467L1353 466M1352 467L1353 468L1352 467M1372.33 468.667L1372.67 469.333L1372.33 468.667M1351 469L1352 470L1351 469M531 486L532 486C526.382 462.112 565.441 473.713 546 489C552.912 489.932 555.453 479.992 552.107 475.105C544.253 463.634 525.528 472.768 531 486M612 470L613 471L612 470M1373 470L1373 475L1374 475L1373 470z"/>
<path style="fill:#ededee; stroke:none;" d="M537.015 471.938C524.428 477.541 533.723 494.202 545.995 489.142C558.967 483.793 548.846 466.672 537.015 471.938z"/>
<path style="fill:#5a3962; stroke:none;" d="M613.333 471.667L613.667 472.333L613.333 471.667M631 471L632 472L631 471M1437 471L1437 472L1440 472L1437 471z"/>
<path style="fill:#a31ba2; stroke:none;" d="M1440 471.562C1425.12 473.221 1428.65 493.991 1443 492.577C1457.83 491.116 1453.79 470.024 1440 471.562z"/>
<path style="fill:#5a3962; stroke:none;" d="M1443 471L1444 472L1443 471M630 472C624.974 475.317 620.753 475.068 615 474L615 475C618.843 476.439 630.17 478.79 630 472M1350 472L1351 473L1350 472M1435 472L1436 473L1435 472M1446.67 472.333L1447.33 472.667L1446.67 472.333M614 473L615 474L614 473z"/>
<path style="fill:#f90ef4; stroke:none;" d="M1438.02 473.657C1424.89 477.715 1434.36 494.855 1445.98 490.258C1457.52 485.694 1448.29 470.479 1438.02 473.657z"/>
<path style="fill:#5a3962; stroke:none;" d="M1448 473L1449 474L1448 473M1432 474L1433 475L1432 474M1449 474L1450 475L1449 474M1351.33 475.667L1351.67 476.333L1351.33 475.667M1431 475L1432 476L1431 475M1450 475L1451 476L1450 475M1372 477L1373 478L1372 477M1430 477L1431 478L1430 477M1352 478L1353 479L1352 478M1452.33 478.667L1452.67 479.333L1452.33 478.667M1371 479L1372 480L1371 479M1429 479L1429 485L1430 485L1429 479M1354 480L1355 481L1354 480M1370 480L1371 481L1370 480M1453 480L1453 484L1454 484L1453 480M453.004 482.028C437.156 490.064 452.001 508.582 465.981 501.312C480.366 493.832 466.063 475.406 453.004 482.028M1369 481L1370 482L1369 481z"/>
<path style="fill:#ededee; stroke:none;" d="M455.001 482.653C440.345 487.272 449.762 505.498 462.999 501.347C477.905 496.673 468.849 478.288 455.001 482.653z"/>
<path style="fill:#5a3962; stroke:none;" d="M1356 482L1357 483L1356 482M1367 482L1368 483L1367 482M1360 483L1360 484L1365 484L1360 483M1430 486L1431 487L1430 486M1452 486L1453 487L1452 486M532 487L533 488L532 487M533 488L536 490L533 488M1431 488L1432 489L1431 488M1451 488L1452 489L1451 488M662 500L663 500C667.73 480.27 694.438 498.112 676 509C688.66 510.688 686.178 484.639 670.001 489.654C667.882 490.31 665.894 491.531 664.434 493.212C662.661 495.253 662.287 497.426 662 500M1432 489L1433 490L1432 489M1450 489L1451 490L1450 489M536 490L536 491L545 491L536 490z"/>
<path style="fill:#ededee; stroke:none;" d="M671.004 490.562C658.237 493.772 662.132 512.658 674.999 509.522C687.539 506.465 683.843 487.333 671.004 490.562z"/>
<path style="fill:#5a3962; stroke:none;" d="M1434 490L1435 491L1434 490M1449 490L1450 491L1449 490M174.228 491.747C168.281 494.411 173.061 503.802 178.853 500.777C184.715 497.715 180.317 489.019 174.228 491.747M1435.67 491.333L1436.33 491.667L1435.67 491.333M1447 491L1448 492L1447 491M1438.67 492.333L1439.33 492.667L1438.67 492.333M1444.67 492.333L1445.33 492.667L1444.67 492.333z"/>
<path style="fill:#ededee; stroke:none;" d="M175.603 494.171C173.098 495.685 175.895 499.796 178.218 497.918C180.237 496.287 177.815 492.835 175.603 494.171z"/>
<path style="fill:#5a3962; stroke:none;" d="M1237 495L1237 496L1246 497L1237 495M1235 496L1236 497L1235 496z"/>
<path style="fill:#a31ba2; stroke:none;" d="M1236.04 496.742C1223.59 501.785 1232.76 520.975 1245 516.258C1258.81 510.934 1249.02 491.488 1236.04 496.742z"/>
<path style="fill:#5a3962; stroke:none;" d="M1233 497L1234 498L1233 497z"/>
<path style="fill:#f90ef4; stroke:none;" d="M1238.04 497.692C1227.59 500.661 1232.26 517.771 1243 515.254C1254.82 512.482 1249.62 494.402 1238.04 497.692z"/>
<path style="fill:#5a3962; stroke:none;" d="M1247 497L1248 498L1247 497M1305 497L1306 498L1305 497z"/>
<path style="fill:#a31ba2; stroke:none;" d="M1306.01 497.707C1292.55 502.198 1301.12 521.788 1313.96 516.964C1326.38 512.297 1318 493.709 1306.01 497.707z"/>
<path style="fill:#5a3962; stroke:none;" d="M1312 497L1313 498L1312 497M1232 498L1233 499L1232 498M1248 498L1249 499L1248 498M1303 498L1304 499L1303 498M1314 498L1315 499L1314 498M1249 499L1250 500L1249 499M1302 499L1303 500L1302 499z"/>
<path style="fill:#f90ef4; stroke:none;" d="M1306.02 499.746C1295.84 503.666 1302.77 519.257 1312.98 515.396C1323.94 511.253 1316.23 495.813 1306.02 499.746z"/>
<path style="fill:#5a3962; stroke:none;" d="M1316 499L1317 500L1316 499M1231 500L1232 501L1231 500M1250 500L1251 501L1250 500M1230.33 501.667L1230.67 502.333L1230.33 501.667M1300 501L1301 502L1300 501M1318 501L1319 502L1318 501M662.333 502.667L662.667 503.333L662.333 502.667M1251 502L1252 503L1251 502M1299 502L1300 503L1299 502M1319.33 502.667L1319.67 503.333L1319.33 502.667M663 504L667 509L663 504M1229 504L1229 508L1230 508L1229 504M1252 504L1252 509L1253 509L1252 504M1320 504L1320 507L1321 507L1320 504M1298 505L1298 509L1299 509L1298 505M593 527L593 526C578.571 515.247 598.939 500.269 607 515C609.957 500.228 574.434 508.968 588.028 524.196C589.423 525.759 591.099 526.339 593 527z"/>
<path style="fill:#ededee; stroke:none;" d="M594.004 508.654C581.736 512.489 587.977 530.079 599.996 526.485C613.048 522.583 606.677 504.691 594.004 508.654z"/>
<path style="fill:#5a3962; stroke:none;" d="M1320.33 508.667L1320.67 509.333L1320.33 508.667M667.667 509.333L668.333 509.667L667.667 509.333M671 510L671 511L674 511L671 510M1230 510L1231 511L1230 510M1251 510L1252 511L1251 510M1299 511L1300 512L1299 511M1231 512L1232 513L1231 512M1250 512L1251 513L1250 512M1319 512L1320 513L1319 512M1232 513L1233 514L1232 513M1249 513L1250 514L1249 513M1300 513L1301 514L1300 513M1318 513L1319 514L1318 513M1233 514L1234 515L1233 514M1248 514L1249 515L1248 514M1301 514L1302 515L1301 514M1235 515L1236 516L1235 515M1247 515L1248 516L1247 515M1302 515L1303 516L1302 515M1317 515L1318 516L1317 515M608.333 516.667L608.667 517.333L608.333 516.667M1245 516L1246 517L1245 516M1316 516L1317 517L1316 516M1306.67 517.333L1307.33 517.667L1306.67 517.333M1312.67 517.333L1313.33 517.667L1312.67 517.333M607 519L602 525L602 526C605.574 524.939 608.031 522.923 607 519M1244 522L1244 523L1249 523L1244 522M1242 523L1243 524L1242 523z"/>
<path style="fill:#a31ba2; stroke:none;" d="M1243 523.654C1229.55 527.861 1237.36 547.11 1249.98 543.192C1262.7 539.245 1255.65 519.699 1243 523.654z"/>
<path style="fill:#5a3962; stroke:none;" d="M1250 523L1251 524L1250 523M1240 524L1241 525L1240 524z"/>
<path style="fill:#f90ef4; stroke:none;" d="M1245 524.718C1232.96 526.795 1237.38 544.482 1249 541.678C1259.12 539.234 1255.03 522.99 1245 524.718z"/>
<path style="fill:#5a3962; stroke:none;" d="M1252 524L1253 525L1252 524M1238 525L1239 526L1238 525M1253 525L1254 526L1253 525M601 526L602 527L601 526M653 526L653 527L664 533C664.12 527.423 657.518 526.21 653 526M1237 526L1238 527L1237 526M594 527L594 528L600 528L594 527M653 547L653 546C642.408 542.819 643.372 533.046 652 528C640.93 525.777 640.931 545.078 653 547z"/>
<path style="fill:#ededee; stroke:none;" d="M652.001 527.707C639.818 531.689 644.5 549.5 656.985 545.967C669.778 542.347 664.53 523.611 652.001 527.707z"/>
<path style="fill:#5a3962; stroke:none;" d="M1255.33 527.667L1255.67 528.333L1255.33 527.667M1236 528L1237 529L1236 528M1256.33 529.667L1256.67 530.333L1256.33 529.667M1235.33 530.667L1235.67 531.333L1235.33 530.667M665 534L665 539L666 539L665 534M1235.33 534.667L1235.67 535.333L1235.33 534.667M1257 534L1258 535L1257 534M1452 536L1452 537L1461 535L1452 536z"/>
<path style="fill:#a31ba2; stroke:none;" d="M1455 535.653C1440.1 540.366 1450.92 559.548 1463.98 555.347C1477.96 550.856 1468.11 531.508 1455 535.653z"/>
<path style="fill:#5a3962; stroke:none;" d="M1463.67 535.333L1464.33 535.667L1463.67 535.333z"/>
<path style="fill:#f90ef4; stroke:none;" d="M1457 536.623C1443.5 538.924 1450.64 556.772 1463 553.681C1474.54 550.793 1467.67 534.805 1457 536.623z"/>
<path style="fill:#5a3962; stroke:none;" d="M1236 537L1237 538L1236 537M1256.33 537.667L1256.67 538.333L1256.33 537.667M1450 537L1451 538L1450 537M958.225 538.971C953.419 540.179 956.057 547.786 960.786 546.149C965.407 544.549 962.602 537.87 958.225 538.971M1449 538L1450 539L1449 538M1468 538L1469 539L1468 538M1237 539L1238 540L1237 539M1255 539L1256 540L1255 539M1469.33 539.667L1469.67 540.333L1469.33 539.667M664 540L665 541L664 540z"/>
<path style="fill:#ededee; stroke:none;" d="M958 540C957.453 543.547 958.453 544.547 962 544L958 540z"/>
<path style="fill:#5a3962; stroke:none;" d="M1238 540L1239 541L1238 540M1448 540L1449 541L1448 540z"/>
<path style="fill:#a31ba2; stroke:none;" d="M1616 540.617C1595.56 545.879 1609.49 569.745 1627 565.467C1645.4 560.971 1631.44 536.642 1616 540.617z"/>
<path style="fill:#5a3962; stroke:none;" d="M1622 540L1623 541L1622 540M663 541L662 544L663 541M1239 541L1240 542L1239 541M1470.33 541.667L1470.67 542.333L1470.33 541.667M1612.67 541.333L1613.33 541.667L1612.67 541.333M1625.67 541.333L1626.33 541.667L1625.67 541.333M1240 542L1241 543L1240 542M1252 542L1253 543L1252 542M1447 542L1448 543L1447 542M1610 542L1611 543L1610 542z"/>
<path style="fill:#f90ef4; stroke:none;" d="M1617 542.483C1599.38 545.462 1609.17 567.161 1624 564.667C1642.12 561.618 1632.48 539.866 1617 542.483z"/>
<path style="fill:#5a3962; stroke:none;" d="M1628 542L1629 543L1628 542M1243 543L1244 544L1243 543M1249.67 543.333L1250.33 543.667L1249.67 543.333M1609 543L1610 544L1609 543M1629 543L1630 544L1629 543M659 546L662 544L659 546M1245.67 544.333L1246.33 544.667L1245.67 544.333M1608 544L1609 545L1608 544M1631 544L1632 545L1631 544M1396 545L1396 546L1402 546L1396 545M1471.33 545.667L1471.67 546.333L1471.33 545.667M1607 545L1608 546L1607 545M1632 545L1633 546L1632 545M655 546L655 547L659 547L655 546z"/>
<path style="fill:#a31ba2; stroke:none;" d="M1394.02 547.028C1380.95 553.817 1393.89 571.786 1405.9 565.427C1418.18 558.922 1405.44 541.091 1394.02 547.028z"/>
<path style="fill:#5a3962; stroke:none;" d="M1403 546L1404 547L1403 546M1447.33 546.667L1447.67 547.333L1447.33 546.667M1606 546L1607 547L1606 546M1633 546L1634 547L1633 546M435 551C439.261 549.649 443.687 548.166 447.985 550.318C459.077 555.873 450.781 567.252 442 569C455.624 573.818 461.022 545.655 441.015 547.685C438.123 547.979 436.639 548.719 435 551M654 547L655 548L654 547M1392 547L1393 548L1392 547z"/>
<path style="fill:#f90ef4; stroke:none;" d="M1397 547.696C1383.94 551.065 1392.08 568.088 1403.91 564.566C1414.49 561.414 1406.93 545.135 1397 547.696z"/>
<path style="fill:#5a3962; stroke:none;" d="M1405 547L1406 548L1405 547M1391 548L1392 549L1391 548M1605 548L1605 551L1606 551L1605 548M1634 548L1635 549L1634 548z"/>
<path style="fill:#ededee; stroke:none;" d="M439 549.533C424.747 552.981 429.896 572.15 444 568.968C459.14 565.553 454.299 545.832 439 549.533z"/>
<path style="fill:#5a3962; stroke:none;" d="M673.343 550.086C670.212 552.061 673.422 556.851 676.407 554.763C679.237 552.785 676.402 548.155 673.343 550.086M1390 549L1391 550L1390 549M1448 549L1449 550L1448 549M1470 549L1471 550L1470 549M1389 550L1390 551L1389 550M1635 550L1636 551L1635 550M433 551L434 552L433 551z"/>
<path style="fill:#ededee; stroke:none;" d="M673 551L673 554L676 554L676 551L673 551z"/>
<path style="fill:#5a3962; stroke:none;" d="M1409 551L1410 552L1409 551M1449 551L1450 552L1449 551M1469.33 551.667L1469.67 552.333L1469.33 551.667M432 552L433 553L432 552M502 553L502 554C514.118 554.042 520.836 563.271 510 572C515.789 572.795 518.665 564.79 517.131 560.015C515.035 553.493 508.009 551.831 502 553M1388.33 552.667L1388.67 553.333L1388.33 552.667M1450 552L1451 553L1450 552M1636 552L1636 557L1637 557L1636 552M431 553L432 554L431 553M1410 553L1411 554L1410 553M1451 553L1452 554L1451 553M1605 553L1605 557L1606 557L1605 553M430 554L429 564L430 564L430 554M509 574L509 573C493.127 575.803 493.64 563.274 501 554C486.917 560.628 494.576 578.222 509 574z"/>
<path style="fill:#ededee; stroke:none;" d="M501.005 554.938C488.171 560.572 496.412 578.087 508.996 572.772C522.669 566.996 514.162 549.163 501.005 554.938z"/>
<path style="fill:#5a3962; stroke:none;" d="M1453 554L1454 555L1453 554M1466 554L1467 555L1466 554M1455 555L1456 556L1455 555M1464.67 555.333L1465.33 555.667L1464.67 555.333M1458 556L1458 557L1462 557L1458 556M1388 557L1388 560L1389 560L1388 557M1606.33 557.667L1606.67 558.333L1606.33 557.667M1635 558L1636 559L1635 558M1607 559L1608 560L1607 559M1389 560L1390 561L1389 560M1410.33 560.667L1410.67 561.333L1410.33 560.667M1608 560L1609 561L1608 560M1634 560L1635 561L1634 560M1268 562L1268 563L1271 563L1268 562z"/>
<path style="fill:#a31ba2; stroke:none;" d="M1271 562.523C1257.31 564.823 1262.38 584.662 1275 582.756C1288.94 580.65 1283.97 560.344 1271 562.523z"/>
<path style="fill:#5a3962; stroke:none;" d="M1275.67 562.333L1276.33 562.667L1275.67 562.333M1390 562L1391 563L1390 562M1409 562L1410 563L1409 562M1633 562L1634 563L1633 562M1266 563L1267 564L1266 563M430 564L431 565L430 564M856.307 565.086C852.644 567.24 855.891 573.14 859.556 570.914C863.068 568.779 860.012 562.908 856.307 565.086M1265 564L1266 565L1265 564z"/>
<path style="fill:#f90ef4; stroke:none;" d="M1268.11 565.028C1258.87 570.223 1267.88 585.416 1276.98 580.817C1288.34 575.076 1278.18 559.365 1268.11 565.028z"/>
<path style="fill:#5a3962; stroke:none;" d="M1279 564L1280 565L1279 564M1336.67 564.333L1337.33 564.667L1336.67 564.333z"/>
<path style="fill:#a31ba2; stroke:none;" d="M1338 564.587C1324.22 568.23 1332.45 588.3 1344.99 584.346C1357.91 580.269 1350.19 561.366 1338 564.587z"/>
<path style="fill:#5a3962; stroke:none;" d="M1343.67 564.333L1344.33 564.667L1343.67 564.333M1392 564L1393 565L1392 564M1613 564L1614 565L1613 564M1630 564L1631 565L1630 564M431 565L432 566L431 565M1264 565L1265 566L1264 565M1280 565L1281 566L1280 565M1334 565L1335 566L1334 565M1346 565L1347 566L1346 565M1393 565L1394 566L1393 565M1406.67 565.333L1407.33 565.667L1406.67 565.333M1615 565L1616 566L1615 565M1627.67 565.333L1628.33 565.667L1627.67 565.333M432 566L433 567L432 566z"/>
<path style="fill:#ededee; stroke:none;" d="M856 566L856 570L860 569L860 567L856 566z"/>
<path style="fill:#5a3962; stroke:none;" d="M1263 566L1264 567L1263 566M1281 566L1282 567L1281 566M1333 566L1334 567L1333 566z"/>
<path style="fill:#f90ef4; stroke:none;" d="M1337.05 566.742C1326.39 571.123 1335.71 586.411 1345.9 582.106C1356.37 577.682 1346.54 562.843 1337.05 566.742z"/>
<path style="fill:#5a3962; stroke:none;" d="M1396 566L1397 567L1396 566M1403.67 566.333L1404.33 566.667L1403.67 566.333M1620 566L1620 567L1624 567L1620 566M433 567L441 570L441 569L433 567M1282 567L1283 568L1282 567M1332 567L1333 568L1332 567M1262.33 568.667L1262.67 569.333L1262.33 568.667M1349 568L1350 569L1349 568M1283 569L1284 570L1283 569M1331 569L1332 570L1331 569M1350 569L1351 570L1350 569M628.004 571.703C614.62 576.263 620.324 595.938 633.999 591.812C647.432 587.76 641.963 566.946 628.004 571.703M1330 571L1331 572L1330 571M1351 571L1352 572L1351 571z"/>
<path style="fill:#ededee; stroke:none;" d="M629.001 572.576C616.908 575.899 620.519 593.547 632.996 590.577C645.331 587.641 641.84 569.049 629.001 572.576z"/>
<path style="fill:#5a3962; stroke:none;" d="M1262 573L1262 577L1263 577L1262 573M1352 573L1352 578L1353 578L1352 573M1330.33 575.667L1330.67 576.333L1330.33 575.667M1283 576L1284 577L1283 576M1263 577L1264 578L1263 577M1264 578L1265 579L1264 578M1282 578L1283 579L1282 578M1331.33 578.667L1331.67 579.333L1331.33 578.667M562 600L562 599C545.031 593.211 561.596 571.197 574 586C575.908 572.151 539.166 582.722 556.129 597.682C557.944 599.283 559.711 599.646 562 600M1265 579L1266 580L1265 579M1281 579L1282 580L1281 579M1351 579L1352 580L1351 579z"/>
<path style="fill:#ededee; stroke:none;" d="M561.004 580.703C549.449 584.643 553.802 602.563 565.999 599.04C579.653 595.097 574.53 576.091 561.004 580.703z"/>
<path style="fill:#5a3962; stroke:none;" d="M932.05 580.917C925.9 581.472 926.917 590.904 932.996 590.454C939.396 589.98 938.538 580.331 932.05 580.917M1266 580L1267 581L1266 580M1280 580L1281 581L1280 580M1332 580L1333 581L1332 580M1350.33 580.667L1350.67 581.333L1350.33 580.667M1267 581L1268 582L1267 581M1279 581L1280 582L1279 581M1333 581L1334 582L1333 581M36 582L36 597C44.5591 594.517 42.6875 585.586 36 582M1269 582L1270 583L1269 582M1277.67 582.333L1278.33 582.667L1277.67 582.333M1334 582L1335 583L1334 582M1349 582L1350 583L1349 582z"/>
<path style="fill:#ededee; stroke:none;" d="M930 588C938.763 587.3 931.353 579.866 930 588z"/>
<path style="fill:#5a3962; stroke:none;" d="M1336 583L1337 584L1336 583M1347 583L1348 584L1347 583M1337 584L1338 585L1337 584M1345.67 584.333L1346.33 584.667L1345.67 584.333M1341 585L1341 586L1344 586L1341 585z"/>
<path style="fill:#ededee; stroke:none;" d="M36 586L36 594C38.9431 591.074 38.9431 588.926 36 586z"/>
<path style="fill:#5a3962; stroke:none;" d="M575.333 588.667L575.667 589.333L575.333 588.667M1581 588L1581 589L1584 589L1581 588M1578.67 589.333L1579.33 589.667L1578.67 589.333z"/>
<path style="fill:#a31ba2; stroke:none;" d="M1580 589.537C1560.25 594.094 1574.21 618.188 1591 613.566C1607.96 608.896 1594.33 586.23 1580 589.537z"/>
<path style="fill:#5a3962; stroke:none;" d="M1586 589L1586 590L1589 590L1586 589M1575.67 590.333L1576.33 590.667L1575.67 590.333M1589 590L1590 591L1589 590M574 591L573 595L574 595L574 591M1574 591L1575 592L1574 591z"/>
<path style="fill:#f90ef4; stroke:none;" d="M1579 591.573C1562.96 596.159 1576.57 616.565 1590 612.347C1605.72 607.409 1592.35 587.757 1579 591.573z"/>
<path style="fill:#5a3962; stroke:none;" d="M1592 591L1593 592L1592 591M1573 592L1574 593L1573 592M1593 592L1594 593L1593 592M1572 593L1573 594L1572 593M1594 593L1595 594L1594 593M1571 594L1572 595L1571 594M1595 594L1596 595L1595 594M572 595L573 596L572 595M1570 595L1571 596L1570 595M1596 595L1597 596L1596 595M571 596L572 597L571 596M570 597L571 598L570 597M565 599L565 600L570 599L565 599M1569 598L1569 604L1570 604L1569 598M1598 599L1599 600L1598 599M1599 601L1599 605L1600 605L1599 601M1570.33 604.667L1570.67 605.333L1570.33 604.667M293 606L293 607L302 607L293 606M1311.67 606.333L1312.33 606.667L1311.67 606.333z"/>
<path style="fill:#a31ba2; stroke:none;" d="M1313 606.718C1299.21 608.348 1303.22 628.615 1316 627.692C1330.43 626.65 1326.49 605.124 1313 606.718z"/>
<path style="fill:#5a3962; stroke:none;" d="M1315.67 606.333L1316.33 606.667L1315.67 606.333M1571 606L1572 607L1571 606M1598.33 606.667L1598.67 607.333L1598.33 606.667M279 621L280 621C281.728 614.381 286.061 610.964 292 608C284.856 605.896 279.332 614.915 279 621z"/>
<path style="fill:#ededee; stroke:none;" d="M292 607.688C273.567 613.471 279.283 637.421 298 631.955C317.793 626.175 311.852 601.46 292 607.688z"/>
<path style="fill:#5a3962; stroke:none;" d="M304 607L304 608L308 610L304 607M1308.67 607.333L1309.33 607.667L1308.67 607.333M1318 607L1319 608L1318 607M1307 608L1308 609L1307 608z"/>
<path style="fill:#f90ef4; stroke:none;" d="M1313 608.657C1300.69 610.011 1305.69 627.411 1317 625.616C1328.3 623.82 1323.65 607.485 1313 608.657z"/>
<path style="fill:#5a3962; stroke:none;" d="M1320 608L1321 609L1320 608M1572 608L1573 609L1572 608M1306 609L1307 610L1306 609M1322 609L1323 610L1322 609M1573 609L1574 610L1573 609M308 610L309 611L308 610M1305 610L1306 611L1305 610M1323 610L1324 611L1323 610M1596 610L1597 611L1596 610M309 611L310 612L309 611M1575 611L1576 612L1575 611M1595 611L1596 612L1595 611M310 612L311 613L310 612M1577 612L1578 613L1577 612M1594 612L1595 613L1594 612M311 613L311 617L312 617L311 613M1303 613L1303 619L1304 619L1303 613M1324 613L1325 614L1324 613M1592 613L1593 614L1592 613M1325.33 614.667L1325.67 615.333L1325.33 614.667M1581 614L1581 615L1590 615L1581 614M311 619L311 622L312 622L311 619M608 641L608 640C595.873 639.865 590.229 625.597 604.001 621.668C617.084 617.936 616.363 633.082 609 639C619.57 640.43 619.216 619.557 606 620.144C589.717 620.867 592.24 645.288 608 641M1304 620L1305 621L1304 620M1325.33 620.667L1325.67 621.333L1325.33 620.667z"/>
<path style="fill:#ededee; stroke:none;" d="M603.004 621.654C590.634 625.52 595.053 643.399 607.996 639.486C620.382 635.742 615.962 617.603 603.004 621.654z"/>
<path style="fill:#5a3962; stroke:none;" d="M310 622L309 626L310 626L310 622M1305 622L1306 623L1305 622M1324 622L1325 623L1324 622M279 623L280 628L281 628L279 623M1306 623L1307 624L1306 623M1323 624L1324 625L1323 624M1308 625L1309 626L1308 625M1322 625L1323 626L1322 625M308 626L309 627L308 626M1309 626L1310 627L1309 626M1320 626L1321 627L1320 626M307 627L308 628L307 627M1311.67 627.333L1312.33 627.667L1311.67 627.333M1318 627L1319 628L1318 627M281 628L282 629L281 628M304 630L307 628L304 630M282 629L285 631L282 629M296 632L296 633L304 631L296 632M285 631L285 632L291 633L291 632L285 631M356.407 636.082C353.667 637.901 356.912 641.681 359.393 639.918C361.997 638.067 358.981 634.373 356.407 636.082M335 661L335 660C330.409 661.29 325.698 662.714 321.004 660.968C305.87 655.336 317.429 641.318 327 638C312.33 633.732 305.093 662.96 326 662.971C329.275 662.972 332.014 662.26 335 661z"/>
<path style="fill:#ededee; stroke:none;" d="M327 637.624C308.142 641.987 311.094 666.146 331 661.316C347.72 657.258 344.455 633.586 327 637.624z"/>
<path style="fill:#5a3962; stroke:none;" d="M332 637L332 638L340 640L332 637z"/>
<path style="fill:#ededee; stroke:none;" d="M356 637L357 640L358 640L359 637L356 637z"/>
<path style="fill:#5a3962; stroke:none;" d="M340 640L342 653L343 653C344.534 647.807 344.304 643.585 340 640M341.333 653.667L341.667 654.333L341.333 653.667M1541 653L1541 654L1546 654L1541 653M1537 654L1538 655L1537 654z"/>
<path style="fill:#a31ba2; stroke:none;" d="M1538.02 654.742C1522.7 660.782 1538.33 682.706 1551.96 676.771C1567.33 670.078 1551.68 649.354 1538.02 654.742z"/>
<path style="fill:#5a3962; stroke:none;" d="M1549 654L1550 655L1549 654M340 655L336 660L340 655M1535 655L1536 656L1535 655z"/>
<path style="fill:#f90ef4; stroke:none;" d="M1540 655.731C1524.93 661.009 1538.36 680.139 1551 675.397C1564.77 670.226 1551.36 651.756 1540 655.731z"/>
<path style="fill:#5a3962; stroke:none;" d="M1551 655L1552 656L1551 655M1552 656L1553 657L1552 656M1533 657L1534 658L1533 657M1553 657L1554 658L1553 657M1554 658L1555 659L1554 658M1532 659L1533 660L1532 659M1555 659L1556 660L1555 659M1556 660L1557 661L1556 660M1557 661L1558 662L1557 661M1079.32 663.032C1074.14 666.374 1079.08 675.11 1084.77 671.806C1090.72 668.35 1084.89 659.438 1079.32 663.032M1531 662L1531 667L1532 667L1531 662z"/>
<path style="fill:#ededee; stroke:none;" d="M1081.28 665.252C1078.84 666.436 1080.05 670.093 1082.74 669.252C1085.64 668.341 1084.09 663.888 1081.28 665.252z"/>
<path style="fill:#5a3962; stroke:none;" d="M1558 665L1558 671L1559 671L1558 665M1532 669L1533 670L1532 669M1533.33 670.667L1533.67 671.333L1533.33 670.667M1534 672L1535 673L1534 672M1557 672L1558 673L1557 672M1535 673L1536 674L1535 673M1556.33 673.667L1556.67 674.333L1556.33 673.667M1536 674L1537 675L1536 674M1538 675L1539 676L1538 675M1554.67 675.333L1555.33 675.667L1554.67 675.333M1539 676L1540 677L1539 676M1553 676L1554 677L1553 676M1542 677L1542 678L1545 678L1542 677M1550.67 677.333L1551.33 677.667L1550.67 677.333M361 703L361 702C358.6 701.393 356.227 700.786 354.277 699.146C335.756 683.568 385.184 668.916 376.698 692C375.634 694.896 373.645 697.421 372 700C385.275 691.894 376.405 675.038 362 678.533C348.014 681.927 344.443 701.293 361 703M1546.67 678.333L1547.33 678.667L1546.67 678.333z"/>
<path style="fill:#ededee; stroke:none;" d="M363 679.483C347.488 682.72 347.827 705.73 365 702.036C381.124 698.566 380.9 675.748 363 679.483z"/>
<path style="fill:#5a3962; stroke:none;" d="M363 702L363 703L371 701L363 702M1503 703L1503 704L1508 704L1503 703M1500 704L1501 705L1500 704z"/>
<path style="fill:#a31ba2; stroke:none;" d="M1501.02 704.653C1486.22 709.436 1499.67 731.226 1513 726.106C1527.96 720.357 1514.04 700.443 1501.02 704.653z"/>
<path style="fill:#5a3962; stroke:none;" d="M1510 704L1511 705L1510 704M1498 705L1499 706L1498 705M1512 705L1513 706L1512 705M1496 706L1497 707L1496 706z"/>
<path style="fill:#f90ef4; stroke:none;" d="M1500.19 706.742C1488.15 712.079 1503.11 730.043 1513.89 723.972C1525.54 717.416 1510.37 702.228 1500.19 706.742z"/>
<path style="fill:#5a3962; stroke:none;" d="M1513 706L1514 707L1513 706M1495 708L1496 709L1495 708M1494 710L1494 713L1495 713L1494 710M1517 710L1518 711L1517 710M1518 712L1519 713L1518 712M1519 713L1519 716L1520 716L1519 713M1494 714L1494 717L1495 717L1494 714M396 729L397 729C401.004 721.309 418.956 712.598 420.728 727.004C422.398 740.589 404.077 743.779 397 735C396.32 739.777 401.934 741.773 406 741.951C412.81 742.25 420.242 738.048 421.655 731C425.11 713.767 399.894 715.135 396 729M1519 718L1519 721L1520 721L1519 718z"/>
<path style="fill:#ededee; stroke:none;" d="M407 719.613C392.525 723.495 393.866 744.291 410 740.468C424.907 736.936 423.582 715.167 407 719.613z"/>
<path style="fill:#5a3962; stroke:none;" d="M1495 719L1496 720L1495 719M1496 720L1497 721L1496 720M1497 721L1498 722L1497 721M1518 722L1519 723L1518 722M1517 723L1518 724L1517 723M1500 724L1501 725L1500 724M1516 724L1517 725L1516 724M1501 725L1502 726L1501 725M1515 725L1516 726L1515 725M1504.67 726.333L1505.33 726.667L1504.67 726.333M1512.67 726.333L1513.33 726.667L1512.67 726.333M1508 727L1508 728L1511 728L1508 727M395 730L395 734L396 734L395 730M1847.09 741.746C1837.81 745.489 1843.64 759.729 1852.96 756.102C1862.31 752.459 1856.41 737.989 1847.09 741.746z"/>
<path style="fill:#ededee; stroke:none;" d="M1847.6 746.032C1843.68 749.065 1848.54 754.76 1852.55 751.968C1856.87 748.959 1851.45 743.057 1847.6 746.032z"/>
<path style="fill:#5a3962; stroke:none;" d="M1459 766L1462 765L1459 766z"/>
<path style="fill:#a31ba2; stroke:none;" d="M1462.04 764.657C1447.24 769.328 1459.34 791.313 1472 787.015C1486.79 781.992 1475.24 760.49 1462.04 764.657z"/>
<path style="fill:#5a3962; stroke:none;" d="M1468.67 764.333L1469.33 764.667L1468.67 764.333M1471 765L1472 766L1471 765z"/>
<path style="fill:#f90ef4; stroke:none;" d="M1461.04 767.028C1449.49 773.188 1462.92 789.889 1472.94 784.678C1484.06 778.895 1471.68 761.36 1461.04 767.028z"/>
<path style="fill:#5a3962; stroke:none;" d="M1473 766L1474 767L1473 766M1457 767L1458 768L1457 767M1474 767L1475 768L1474 767M1456 768L1457 769L1456 768M1475 768L1476 769L1475 768M457 769L457 770C481.331 770.588 460.072 803.207 447 786C445.457 792.417 455.681 793.587 460 792.145C474.93 787.159 472.679 769.14 457 769M1455 769L1456 770L1455 769M1476 769L1477 770L1476 769M455 770C448.612 773.479 445.344 777.601 445 785L446 785C446.704 778.174 450.406 774.565 456 771L455 770z"/>
<path style="fill:#ededee; stroke:none;" d="M456 770.819C442.405 775.713 444.664 796.206 460 790.732C472.903 786.127 470.722 765.519 456 770.819z"/>
<path style="fill:#5a3962; stroke:none;" d="M1477 770L1478 771L1477 770M1478.33 772.667L1478.67 773.333L1478.33 772.667M1479 774L1479 781L1480 781L1479 774M1455 778L1456 779L1455 778M1456.33 779.667L1456.67 780.333L1456.33 779.667M1457 781L1458 782L1457 781M1458 782L1459 783L1458 782M1478 782L1479 783L1478 782M1459 783L1460 784L1459 783M1460 784L1461 785L1460 784M1461 785L1462 786L1461 785M1475 785L1476 786L1475 785M1463 786L1464 787L1463 786M1473.67 786.333L1474.33 786.667L1473.67 786.333M1465.67 787.333L1466.33 787.667L1465.67 787.333M1471 787L1472 788L1471 787M784.26 805.059C781.349 805.644 782.849 810.212 785.606 809.249C788.141 808.363 786.762 804.557 784.26 805.059z"/>
<path style="fill:#ededee; stroke:none;" d="M783 808L784 809L786 806L783 808z"/>
<path style="fill:#5a3962; stroke:none;" d="M1607.6 982.043C1604.39 984.441 1608.4 989.238 1611.38 986.357C1614.09 983.744 1610.51 979.875 1607.6 982.043z"/>
<path style="fill:#ededee; stroke:none;" d="M1608 982L1607 983L1607 985L1608 986L1610 986L1611 985L1611 983L1610 982L1608 982z"/>
<path style="fill:#5a3962; stroke:none;" d="M1312.67 996.333L1313.33 996.667L1312.67 996.333z"/>
<path style="fill:#ededee; stroke:none;" d="M1304 1009L1311 1009C1316.19 990.686 1335.06 1012.34 1320 1016.57C1317.77 1017.19 1315.29 1016.99 1313 1017L1313 1022C1322.33 1022.03 1335.19 1034.46 1320.98 1039.21C1314.06 1041.54 1310.8 1032.23 1304 1032C1305.62 1061.62 1352.57 1033.99 1327 1020C1348.42 1001.8 1306.67 983.105 1304 1009z"/>
<path style="fill:#5a3962; stroke:none;" d="M1324 996L1325 997L1324 996M1343 996L1343 1044L1344 1044C1344 1030.47 1348.21 1008.41 1343 996z"/>
<path style="fill:#ededee; stroke:none;" d="M1344 996L1344 1044C1352.64 1044 1363.39 1045.82 1370.98 1040.87C1383.58 1032.65 1383.58 1007.35 1370.98 999.133C1363.39 994.18 1352.64 996 1344 996z"/>
<path style="fill:#5a3962; stroke:none;" d="M1365 996L1366 997L1365 996M1404 996L1404 1044L1405 1044C1405 1030.47 1409.21 1008.41 1404 996z"/>
<path style="fill:#ededee; stroke:none;" d="M1405 996L1405 1044L1437 1044L1437 1039L1412 1039L1412 1022L1433 1022L1433 1017L1412 1017L1412 1001L1436 1001L1436 996L1405 996z"/>
<path style="fill:#5a3962; stroke:none;" d="M1436 996L1436 1001L1437 1001L1436 996M1443 996L1443 1044L1444 1044C1444 1030.47 1448.21 1008.41 1443 996z"/>
<path style="fill:#ededee; stroke:none;" d="M1444 996L1444 1044L1451 1044L1451 1008L1452 1008C1455.81 1018.42 1468.08 1043.86 1480 1044L1480 996L1474 996L1474 1032C1466.21 1021.87 1458.12 996.167 1444 996z"/>
<path style="fill:#5a3962; stroke:none;" d="M1451 996L1452 997L1451 996M1473 996L1473 1032L1474 1032C1474 1021.61 1477.01 1005.56 1473 996M1480 996L1480 1044L1481 1044C1481 1030.47 1485.21 1008.41 1480 996M1486.33 996.667L1486.67 997.333L1486.33 996.667z"/>
<path style="fill:#ededee; stroke:none;" d="M1487 996C1489.16 1008.57 1495.81 1020.96 1500 1033C1501.2 1036.46 1502.76 1044.66 1507.91 1043.62C1512.3 1042.74 1513.44 1035.5 1514.69 1032C1518.99 1019.96 1523.9 1008.11 1528 996L1520 996L1508 1035C1502.6 1024.75 1500.52 996.161 1487 996z"/>
<path style="fill:#5a3962; stroke:none;" d="M1494.33 996.667L1494.67 997.333L1494.33 996.667z"/>
<path style="fill:#ededee; stroke:none;" d="M1534 996L1534 1044L1541 1044L1541 996L1534 996z"/>
<path style="fill:#5a3962; stroke:none;" d="M1541 996L1541 1044L1542 1044C1542 1030.47 1546.21 1008.41 1541 996M1552 996L1552 1044L1553 1044C1553 1030.47 1557.21 1008.41 1552 996z"/>
<path style="fill:#ededee; stroke:none;" d="M1553 996L1553 1044L1560 1044L1560 1023C1565.58 1023 1573.2 1021.74 1577.35 1026.39C1584.03 1033.89 1575.32 1043.95 1589 1044C1586.12 1036.11 1588.72 1025.3 1580 1021C1586.92 1014.35 1590.56 1002.04 1578.99 997.344C1571.42 994.272 1561.02 996 1553 996z"/>
<path style="fill:#5a3962; stroke:none;" d="M1576.67 996.333L1577.33 996.667L1576.67 996.333M1608 996L1609 997L1608 996z"/>
<path style="fill:#ededee; stroke:none;" d="M1609 996.533C1584.8 1002.41 1591.88 1051.3 1620 1044.47C1644.47 1038.52 1637.22 989.673 1609 996.533z"/>
<path style="fill:#5a3962; stroke:none;" d="M1620 996L1621 997L1620 996z"/>
<path style="fill:#ededee; stroke:none;" d="M1643 996L1643 1044L1650 1044L1650 1008L1651 1008C1655.2 1019.1 1667.31 1043.96 1680 1044L1680 996L1673 996C1673 1001.07 1674.72 1008.94 1670 1012L1670 1013L1673 1013L1673 1032C1665.16 1021.72 1657.38 996.17 1643 996z"/>
<path style="fill:#5a3962; stroke:none;" d="M1650 996L1651 997L1650 996M1672 996L1672 1010L1668 1013L1673 1012L1672 996M1690 996L1690 1044L1691 1044C1691 1030.47 1695.21 1008.41 1690 996z"/>
<path style="fill:#ededee; stroke:none;" d="M1691 996L1691 1044L1698 1044L1697 1008L1698 1008C1701.09 1017.14 1705.01 1026.04 1708.6 1035C1709.63 1037.58 1710.79 1043.11 1714.17 1043.53C1717.97 1044.01 1719.34 1038.63 1720.4 1036C1724.07 1026.87 1728.73 1017.58 1731 1008L1732 1008L1732 1044L1739 1044L1739 996C1723.75 996.012 1719.3 1021.3 1715 1034C1708.59 1021.97 1706.92 996.012 1691 996z"/>
<path style="fill:#5a3962; stroke:none;" d="M1729 996L1730 997L1729 996M1749 996L1749 1044L1750 1044C1750 1030.47 1754.21 1008.41 1749 996z"/>
<path style="fill:#ededee; stroke:none;" d="M1750 996L1750 1044L1782 1044L1782 1039L1757 1039L1757 1022L1778 1022L1778 1017L1757 1017L1757 1001L1781 1001L1781 996L1750 996z"/>
<path style="fill:#5a3962; stroke:none;" d="M1781 996L1781 1001L1782 1001L1781 996M1788 996L1788 1044L1789 1044C1789 1030.47 1793.21 1008.41 1788 996z"/>
<path style="fill:#ededee; stroke:none;" d="M1789 996L1789 1044L1796 1044L1796 1008L1797 1008C1800.81 1018.42 1813.08 1043.86 1825 1044L1825 996L1819 996L1819 1032C1811.21 1021.87 1803.12 996.167 1789 996z"/>
<path style="fill:#5a3962; stroke:none;" d="M1796 996L1797 997L1796 996M1818 996L1818 1032L1819 1032C1819 1021.61 1822.01 1005.56 1818 996M1825 996L1825 1044L1826 1044C1826 1030.47 1830.21 1008.41 1825 996M1830 996L1830 1001L1831 1001L1830 996z"/>
<path style="fill:#ededee; stroke:none;" d="M1831 996L1831 1001L1846 1001L1846 1044L1853 1044L1853 1001L1868 1001L1868 996L1831 996z"/>
<path style="fill:#5a3962; stroke:none;" d="M1868 996L1868 1001L1869 1001L1868 996M1310 997L1311 998L1310 997M1326 997L1327 998L1326 997M1368 997L1369 998L1368 997M1519.33 997.667L1519.67 998.333L1519.33 997.667M1527.33 997.667L1527.67 998.333L1527.33 997.667M1605 997L1606 998L1605 997M1623 997L1624 998L1623 997M1651 997L1652 998L1651 997M1700 997L1701 998L1700 997M1328 998L1329 999L1328 998M1370 998L1371 999L1370 998M1452 998L1453 999L1452 998M1581 998L1582 999L1581 998M1728 998L1729 999L1728 998M1797 998L1798 999L1797 998M1307 999L1308 1000L1307 999M1329 999L1330 1000L1329 999M1371 999L1372 1000L1371 999M1453 999L1454 1000L1453 999M1487 999L1488 1000L1487 999M1495.33 999.667L1495.67 1000.33L1495.33 999.667M1602 999L1603 1000L1602 999M1626 999L1627 1000L1626 999M1652 999L1653 1000L1652 999M1701.33 999.667L1701.67 1000.33L1701.33 999.667M1798 999L1799 1000L1798 999M1306 1000L1307 1001L1306 1000M1330 1000L1331 1001L1330 1000M1518.33 1000.67L1518.67 1001.33L1518.33 1000.67M1526 1000L1527 1001L1526 1000M1601 1000L1602 1001L1601 1000M1627 1000L1628 1001L1627 1000M1727.33 1000.67L1727.67 1001.33L1727.33 1000.67M1316.67 1001.33L1317.33 1001.67L1316.67 1001.33M1319.67 1001.33L1320.33 1001.67L1319.67 1001.33M1331 1001L1332 1002L1331 1001z"/>
<path style="fill:#01010e; stroke:none;" d="M1351 1001L1351 1039C1356.4 1039 1362.46 1039.21 1366.9 1035.57C1374.52 1029.32 1374.58 1010.67 1366.9 1004.43C1362.59 1000.93 1356.26 1001.01 1351 1001z"/>
<path style="fill:#5a3962; stroke:none;" d="M1359 1001L1359 1002L1362 1002L1359 1001M1374 1001L1375 1002L1374 1001M1454 1001L1455 1002L1454 1001M1488.33 1001.67L1488.67 1002.33L1488.33 1001.67z"/>
<path style="fill:#01010e; stroke:none;" d="M1560 1001L1560 1018C1564.91 1018 1571.51 1018.81 1575.85 1016.01C1580.58 1012.97 1579.67 1004.93 1574.89 1002.43C1570.58 1000.18 1564.69 1001 1560 1001z"/>
<path style="fill:#5a3962; stroke:none;" d="M1572.67 1001.33L1573.33 1001.67L1572.67 1001.33M1584 1001L1585 1002L1584 1001M1600 1001L1601 1002L1600 1001M1613.67 1001.33L1614.33 1001.67L1613.67 1001.33M1628 1001L1629 1002L1628 1001M1653 1001L1654 1002L1653 1001M1799 1001L1800 1002L1799 1001M1853 1001L1853 1044L1854 1044C1854 1031.78 1857.71 1012.23 1853 1001M1305 1002L1306 1003L1305 1002M1314 1002L1315 1003L1314 1002M1323 1002L1324 1003L1323 1002M1364 1002L1365 1003L1364 1002M1455 1002L1456 1003L1455 1002M1496.33 1002.67L1496.67 1003.33L1496.33 1002.67M1525.33 1002.67L1525.67 1003.33L1525.33 1002.67M1576 1002L1577 1003L1576 1002M1585 1002L1586 1003L1585 1002M1599 1002L1600 1003L1599 1002M1609 1002L1610 1003L1609 1002z"/>
<path style="fill:#01010e; stroke:none;" d="M1610.02 1002.74C1596.82 1007.94 1600.17 1045.66 1618.98 1038.26C1633.44 1032.57 1628.86 995.319 1610.02 1002.74z"/>
<path style="fill:#5a3962; stroke:none;" d="M1619 1002L1620 1003L1619 1002M1629 1002L1630 1003L1629 1002M1654 1002L1655 1003L1654 1002M1702 1002L1703 1003L1702 1002M1800 1002L1801 1003L1800 1002M1304.33 1003.67L1304.67 1004.33L1304.33 1003.67M1324 1003L1325 1004L1324 1003M1332 1003L1333 1004L1332 1003M1366 1003L1367 1004L1366 1003M1517.33 1003.67L1517.67 1004.33L1517.33 1003.67M1577 1003L1578 1004L1577 1003M1598 1003L1599 1004L1598 1003M1630 1003L1631 1004L1630 1003M1726.33 1003.67L1726.67 1004.33L1726.33 1003.67M1312 1004L1313 1005L1312 1004M1367 1004L1368 1005L1367 1004M1376 1004L1377 1005L1376 1004M1456 1004L1457 1005L1456 1004M1489.33 1004.67L1489.67 1005.33L1489.33 1004.67M1578.33 1004.67L1578.67 1005.33L1578.33 1004.67M1586 1004L1586 1007L1587 1007L1586 1004M1606 1004L1607 1005L1606 1004M1622 1004L1623 1005L1622 1004M1655 1004L1656 1005L1655 1004M1703.33 1004.67L1703.67 1005.33L1703.33 1004.67M1801 1004L1802 1005L1801 1004M1311.33 1005.67L1311.67 1006.33L1311.33 1005.67M1325 1005L1326 1006L1325 1005M1368 1005L1369 1006L1368 1005M1377.33 1005.67L1377.67 1006.33L1377.33 1005.67M1497.33 1005.67L1497.67 1006.33L1497.33 1005.67M1524.33 1005.67L1524.67 1006.33L1524.33 1005.67M1597 1005L1598 1006L1597 1005M1623 1005L1624 1006L1623 1005M1631 1005L1632 1006L1631 1005M1656 1005L1657 1006L1656 1005M1303 1006L1303 1009L1304 1009L1303 1006M1333 1006L1333 1012L1334 1012L1333 1006M1369 1006L1370 1007L1369 1006M1457 1006L1458 1007L1457 1006M1516.33 1006.67L1516.67 1007.33L1516.33 1006.67M1725 1006L1726 1007L1725 1006M1802 1006L1803 1007L1802 1006M1370.33 1007.67L1370.67 1008.33L1370.33 1007.67M1378.33 1007.67L1378.67 1008.33L1378.33 1007.67M1458 1007L1459 1008L1458 1007M1490 1007L1491 1008L1490 1007M1579 1007L1579 1013L1580 1013L1579 1007M1596.33 1007.67L1596.67 1008.33L1596.33 1007.67M1604 1007L1605 1008L1604 1007M1624 1007L1625 1008L1624 1007M1632 1007L1633 1008L1632 1007M1657 1007L1658 1008L1657 1007M1704 1007L1705 1008L1704 1007M1803 1007L1804 1008L1803 1007M1451 1008L1452 1009L1451 1008M1498.33 1008.67L1498.67 1009.33L1498.33 1008.67M1523 1008L1524 1009L1523 1008M1625.33 1008.67L1625.67 1009.33L1625.33 1008.67M1650 1008L1650 1044L1651 1044C1651 1034.63 1654.56 1015.99 1650 1008M1697 1008L1697 1012L1698 1012L1697 1008M1724.33 1008.67L1724.67 1009.33L1724.33 1008.67M1731 1008L1731 1044L1732 1044L1731 1008M1796 1008L1797 1009L1796 1008M1304 1009L1304 1010L1311 1010L1304 1009M1371.33 1009.67L1371.67 1010.33L1371.33 1009.67M1459 1009L1460 1010L1459 1009M1491.33 1009.67L1491.67 1010.33L1491.33 1009.67M1515.33 1009.67L1515.67 1010.33L1515.33 1009.67M1603.33 1009.67L1603.67 1010.33L1603.33 1009.67M1633.33 1009.67L1633.67 1010.33L1633.33 1009.67M1658 1009L1659 1010L1658 1009M1705.33 1009.67L1705.67 1010.33L1705.33 1009.67M1804 1009L1805 1010L1804 1009M1379 1010L1379 1013L1380 1013L1379 1010M1452 1010L1453 1011L1452 1010M1522.33 1010.67L1522.67 1011.33L1522.33 1010.67M1595 1010L1595 1013L1596 1013L1595 1010M1659 1010L1660 1011L1659 1010z"/>
<path style="fill:#01010e; stroke:none;" d="M1731.33 1010.67L1731.67 1011.33L1731.33 1010.67z"/>
<path style="fill:#5a3962; stroke:none;" d="M1797 1010L1798 1011L1797 1010M1453 1011L1454 1012L1453 1011M1460 1011L1461 1012L1460 1011M1499 1011L1500 1012L1499 1011M1626 1011L1626 1014L1627 1014L1626 1011M1652 1011L1653 1012L1652 1011M1723 1011L1724 1012L1723 1011M1798 1011L1799 1012L1798 1011M1805 1011L1806 1012L1805 1011M1325.33 1012.67L1325.67 1013.33L1325.33 1012.67M1461 1012L1462 1013L1461 1012M1492.33 1012.67L1492.67 1013.33L1492.33 1012.67M1514.33 1012.67L1514.67 1013.33L1514.33 1012.67M1586.33 1012.67L1586.67 1013.33L1586.33 1012.67M1602 1012L1602 1029L1603 1029L1602 1012M1660 1012L1661 1013L1660 1012M1699 1012L1700 1013L1699 1012M1706.33 1012.67L1706.67 1013.33L1706.33 1012.67M1806 1012L1807 1013L1806 1012M1332.33 1013.67L1332.67 1014.33L1332.33 1013.67M1372 1013L1372 1027L1373 1027L1372 1013M1454 1013L1455 1014L1454 1013M1521.33 1013.67L1521.67 1014.33L1521.33 1013.67M1653 1013L1654 1014L1653 1013M1661.33 1013.67L1661.67 1014.33L1661.33 1013.67M1672 1013L1672 1032L1673 1032L1672 1013M1722.33 1013.67L1722.67 1014.33L1722.33 1013.67M1729.33 1013.67L1729.67 1014.33L1729.33 1013.67M1799 1013L1800 1014L1799 1013M1324 1014L1325 1015L1324 1014M1462 1014L1463 1015L1462 1014M1500 1014L1501 1015L1500 1014M1578 1014L1579 1015L1578 1014M1654 1014L1655 1015L1654 1014M1700.33 1014.67L1700.67 1015.33L1700.33 1014.67M1807 1014L1808 1015L1807 1014M1323 1015L1324 1016L1323 1015M1331 1015L1332 1016L1331 1015M1455 1015L1456 1016L1455 1015M1463 1015L1464 1016L1463 1015M1493.33 1015.67L1493.67 1016.33L1493.33 1015.67M1513.33 1015.67L1513.67 1016.33L1513.33 1015.67M1577 1015L1578 1016L1577 1015M1585 1015L1586 1016L1585 1015M1634 1015L1634 1026L1635 1026L1634 1015M1662 1015L1663 1016L1662 1015M1707 1015L1708 1016L1707 1015M1728.33 1015.67L1728.67 1016.33L1728.33 1015.67M1800 1015L1801 1016L1800 1015M1808 1015L1809 1016L1808 1015M1320.67 1016.33L1321.33 1016.67L1320.67 1016.33M1456 1016L1457 1017L1456 1016M1501.33 1016.67L1501.67 1017.33L1501.33 1016.67M1520.33 1016.67L1520.67 1017.33L1520.33 1016.67M1584 1016L1585 1017L1584 1016M1655 1016L1656 1017L1655 1016M1721 1016L1722 1017L1721 1016M1801 1016L1802 1017L1801 1016M1312 1017L1312 1022L1313 1022L1312 1017M1330 1017L1331 1018L1330 1017M1433 1017L1433 1022L1434 1022L1433 1017M1464 1017L1465 1018L1464 1017M1571.67 1017.33L1572.33 1017.67L1571.67 1017.33M1663 1017L1664 1018L1663 1017M1701 1017L1702 1018L1701 1017M1708.33 1017.67L1708.67 1018.33L1708.33 1017.67M1778 1017L1778 1022L1779 1022L1778 1017M1809 1017L1810 1018L1809 1017M1457 1018L1458 1019L1457 1018M1494 1018L1495 1019L1494 1018M1512 1018L1513 1019L1512 1018M1582 1018L1583 1019L1582 1018M1656 1018L1657 1019L1656 1018M1664 1018L1665 1019L1664 1018M1720.33 1018.67L1720.67 1019.33L1720.33 1018.67M1727.33 1018.67L1727.67 1019.33L1727.33 1018.67M1802 1018L1803 1019L1802 1018M1327 1019L1328 1020L1327 1019M1465 1019L1466 1020L1465 1019M1502.33 1019.67L1502.67 1020.33L1502.33 1019.67M1519 1019L1520 1020L1519 1019M1581 1019L1582 1020L1581 1019M1657 1019L1658 1020L1657 1019M1702.33 1019.67L1702.67 1020.33L1702.33 1019.67M1810 1019L1811 1020L1810 1019M1328 1020L1329 1021L1328 1020M1458 1020L1459 1021L1458 1020M1466 1020L1467 1021L1466 1020M1495.33 1020.67L1495.67 1021.33L1495.33 1020.67M1580 1020L1581 1021L1580 1020M1665 1020L1666 1021L1665 1020M1709 1020L1710 1021L1709 1020M1726.33 1020.67L1726.67 1021.33L1726.33 1020.67M1803 1020L1804 1021L1803 1020M1811 1020L1812 1021L1811 1020M1459 1021L1460 1022L1459 1021M1511 1021L1512 1022L1511 1021M1518.33 1021.67L1518.67 1022.33L1518.33 1021.67M1582 1021L1583 1022L1582 1021M1658 1021L1659 1022L1658 1021M1719.33 1021.67L1719.67 1022.33L1719.33 1021.67M1804 1021L1805 1022L1804 1021M1320.67 1022.33L1321.33 1022.67L1320.67 1022.33M1331 1022L1332 1023L1331 1022M1467 1022L1468 1023L1467 1022M1503.33 1022.67L1503.67 1023.33L1503.33 1022.67M1583 1022L1584 1023L1583 1022M1659.33 1022.67L1659.67 1023.33L1659.33 1022.67M1666 1022L1667 1023L1666 1022M1703 1022L1704 1023L1703 1022M1710.33 1022.67L1710.67 1023.33L1710.33 1022.67M1812 1022L1813 1023L1812 1022M1323 1023L1324 1024L1323 1023M1460 1023L1461 1024L1460 1023M1468.33 1023.67L1468.67 1024.33L1468.33 1023.67M1496.33 1023.67L1496.67 1024.33L1496.33 1023.67M1510.33 1023.67L1510.67 1024.33L1510.33 1023.67M1573 1023L1574 1024L1573 1023M1584 1023L1585 1024L1584 1023M1667 1023L1668 1024L1667 1023M1725 1023L1726 1024L1725 1023M1805 1023L1806 1024L1805 1023M1813.33 1023.67L1813.67 1024.33L1813.33 1023.67M1332 1024L1333 1025L1332 1024M1461 1024L1462 1025L1461 1024M1517.33 1024.67L1517.67 1025.33L1517.33 1024.67M1585.33 1024.67L1585.67 1025.33L1585.33 1024.67M1660 1024L1661 1025L1660 1024M1704.33 1024.67L1704.67 1025.33L1704.33 1024.67M1718 1024L1719 1025L1718 1024M1806 1024L1807 1025L1806 1024M1325 1025L1326 1026L1325 1025M1333.33 1025.67L1333.67 1026.33L1333.33 1025.67M1469 1025L1470 1026L1469 1025M1504.33 1025.67L1504.67 1026.33L1504.33 1025.67M1577 1025L1578 1026L1577 1025M1668 1025L1669 1026L1668 1025M1711.33 1025.67L1711.67 1026.33L1711.33 1025.67M1724.33 1025.67L1724.67 1026.33L1724.33 1025.67M1814 1025L1815 1026L1814 1025M1326 1026L1326 1029L1327 1029L1326 1026M1462 1026L1463 1027L1462 1026M1497 1026L1498 1027L1497 1026M1509.33 1026.67L1509.67 1027.33L1509.33 1026.67M1661 1026L1662 1027L1661 1026M1669.33 1026.67L1669.67 1027.33L1669.33 1026.67M1717.33 1026.67L1717.67 1027.33L1717.33 1026.67M1807 1026L1808 1027L1807 1026M1379 1027L1379 1030L1380 1030L1379 1027M1470 1027L1471 1028L1470 1027M1516 1027L1517 1028L1516 1027M1578 1027L1579 1028L1578 1027M1586 1027L1586 1030L1587 1030L1586 1027M1626 1027L1626 1030L1627 1030L1626 1027M1662 1027L1663 1028L1662 1027M1705 1027L1706 1028L1705 1027M1712.33 1027.67L1712.67 1028.33L1712.33 1027.67M1815 1027L1816 1028L1815 1027M1463 1028L1464 1029L1463 1028M1471 1028L1472 1029L1471 1028M1498.33 1028.67L1498.67 1029.33L1498.33 1028.67M1505.33 1028.67L1505.67 1029.33L1505.33 1028.67M1595 1028L1595 1031L1596 1031L1595 1028M1670 1028L1671 1029L1670 1028M1723 1028L1724 1029L1723 1028M1808 1028L1809 1029L1808 1028M1816 1028L1817 1029L1816 1028M1334 1029L1334 1033L1335 1033L1334 1029M1371.33 1029.67L1371.67 1030.33L1371.33 1029.67M1464 1029L1465 1030L1464 1029M1508.33 1029.67L1508.67 1030.33L1508.33 1029.67M1515.33 1029.67L1515.67 1030.33L1515.33 1029.67M1579 1029L1579 1040L1580 1040L1579 1029M1663 1029L1664 1030L1663 1029M1706.33 1029.67L1706.67 1030.33L1706.33 1029.67M1716 1029L1717 1030L1716 1029M1809 1029L1810 1030L1809 1029M1603.33 1030.67L1603.67 1031.33L1603.33 1030.67M1633.33 1030.67L1633.67 1031.33L1633.33 1030.67M1713.33 1030.67L1713.67 1031.33L1713.33 1030.67M1722.33 1030.67L1722.67 1031.33L1722.33 1030.67M1303 1031L1303 1036L1304 1036L1304 1032L1310 1032L1303 1031M1370.33 1031.67L1370.67 1032.33L1370.33 1031.67M1378.33 1031.67L1378.67 1032.33L1378.33 1031.67M1465 1031L1466 1032L1465 1031M1499.33 1031.67L1499.67 1032.33L1499.33 1031.67M1506 1031L1507 1035L1508 1035L1506 1031M1625.33 1031.67L1625.67 1032.33L1625.33 1031.67M1664 1031L1665 1032L1664 1031M1715.33 1031.67L1715.67 1032.33L1715.33 1031.67M1810 1031L1811 1032L1810 1031M1310.33 1032.67L1310.67 1033.33L1310.33 1032.67M1466.33 1032.67L1466.67 1033.33L1466.33 1032.67M1514.33 1032.67L1514.67 1033.33L1514.33 1032.67M1596.33 1032.67L1596.67 1033.33L1596.33 1032.67M1665 1032L1666 1033L1665 1032M1707 1032L1708 1033L1707 1032M1811.33 1032.67L1811.67 1033.33L1811.33 1032.67M1326.33 1033.67L1326.67 1034.33L1326.33 1033.67M1369 1033L1370 1034L1369 1033M1377.33 1033.67L1377.67 1034.33L1377.33 1033.67M1604 1033L1605 1034L1604 1033M1624 1033L1625 1034L1624 1033M1632.33 1033.67L1632.67 1034.33L1632.33 1033.67M1714 1033L1715 1034L1714 1033M1721 1033L1722 1034L1721 1033M1368 1034L1369 1035L1368 1034M1467 1034L1468 1035L1467 1034M1500.33 1034.67L1500.67 1035.33L1500.33 1034.67M1666 1034L1667 1035L1666 1034M1708.33 1034.67L1708.67 1035.33L1708.33 1034.67M1812 1034L1813 1035L1812 1034M1311 1035L1312 1036L1311 1035M1333.33 1035.67L1333.67 1036.33L1333.33 1035.67M1367 1035L1368 1036L1367 1035M1376 1035L1377 1036L1376 1035M1513.33 1035.67L1513.67 1036.33L1513.33 1035.67M1597 1035L1598 1036L1597 1035M1623 1035L1624 1036L1623 1035M1631 1035L1632 1036L1631 1035M1667.33 1035.67L1667.67 1036.33L1667.33 1035.67M1720.33 1035.67L1720.67 1036.33L1720.33 1035.67M1325 1036L1326 1037L1325 1036M1366 1036L1367 1037L1366 1036M1468 1036L1469 1037L1468 1036M1606 1036L1607 1037L1606 1036M1622 1036L1623 1037L1622 1036M1813 1036L1814 1037L1813 1036M1304.33 1037.67L1304.67 1038.33L1304.33 1037.67M1312 1037L1313 1038L1312 1037M1324 1037L1325 1038L1324 1037M1364 1037L1365 1038L1364 1037M1469 1037L1470 1038L1469 1037M1501 1037L1502 1038L1501 1037M1598 1037L1599 1038L1598 1037M1621 1037L1622 1038L1621 1037M1630 1037L1631 1038L1630 1037M1668 1037L1669 1038L1668 1037M1709 1037L1710 1038L1709 1037M1814 1037L1815 1038L1814 1037M1323 1038L1324 1039L1323 1038M1332 1038L1333 1039L1332 1038M1360.67 1038.33L1361.33 1038.67L1360.67 1038.33M1374 1038L1375 1039L1374 1038M1512 1038L1513 1039L1512 1038M1599 1038L1600 1039L1599 1038M1609 1038L1610 1039L1609 1038M1619 1038L1620 1039L1619 1038M1629 1038L1630 1039L1629 1038M1719 1038L1720 1039L1719 1038M1305 1039L1306 1040L1305 1039M1316.67 1039.33L1317.33 1039.67L1316.67 1039.33M1320.67 1039.33L1321.33 1039.67L1320.67 1039.33M1331 1039L1332 1040L1331 1039M1470 1039L1471 1040L1470 1039M1502.33 1039.67L1502.67 1040.33L1502.33 1039.67M1600 1039L1601 1040L1600 1039M1613 1039L1613 1040L1616 1040L1613 1039M1628 1039L1629 1040L1628 1039M1669 1039L1670 1040L1669 1039M1710.33 1039.67L1710.67 1040.33L1710.33 1039.67M1815 1039L1816 1040L1815 1039M1306 1040L1307 1041L1306 1040M1371 1040L1372 1041L1371 1040M1511.33 1040.67L1511.67 1041.33L1511.33 1040.67M1587 1040L1588 1041L1587 1040M1601 1040L1602 1041L1601 1040M1627 1040L1628 1041L1627 1040M1670 1040L1671 1041L1670 1040M1718.33 1040.67L1718.67 1041.33L1718.33 1040.67M1307 1041L1308 1042L1307 1041M1370 1041L1371 1042L1370 1041M1471 1041L1472 1042L1471 1041M1602 1041L1603 1042L1602 1041M1626 1041L1627 1042L1626 1041M1816 1041L1817 1042L1816 1041M1308 1042L1309 1043L1308 1042M1328 1042L1329 1043L1328 1042M1368 1042L1369 1043L1368 1042M1472 1042L1473 1043L1472 1042M1503.33 1042.67L1503.67 1043.33L1503.33 1042.67M1580 1042L1581 1043L1580 1042M1588 1042L1589 1043L1588 1042M1671 1042L1672 1043L1671 1042M1711 1042L1712 1043L1711 1042M1817 1042L1818 1043L1817 1042M1310 1043L1311 1044L1310 1043M1326 1043L1327 1044L1326 1043M1365 1043L1366 1044L1365 1043M1510 1043L1511 1044L1510 1043M1605 1043L1606 1044L1605 1043M1623 1043L1624 1044L1623 1043M1717 1043L1718 1044L1717 1043M1312.67 1044.33L1313.33 1044.67L1312.67 1044.33M1324 1044L1325 1045L1324 1044M1608 1044L1609 1045L1608 1044M1620 1044L1621 1045L1620 1044z"/>
</svg>
